<svg xmlns="http://www.w3.org/2000/svg" width="22" height="22" viewBox="0 0 22 22"><g id="Date" transform="translate(301 281)"><g id="Layer_15" data-name="Layer 15" transform="translate(-301 -281)"><path id="Path_463" d="M21.643,4.143H20.071V1.786a.786.786,0,1,0-1.571,0V4.143H7.5V1.786a.786.786,0,0,0-1.571,0V4.143H4.357A2.357,2.357,0,0,0,2,6.5V20.643A2.357,2.357,0,0,0,4.357,23H21.643A2.357,2.357,0,0,0,24,20.643V6.5A2.357,2.357,0,0,0,21.643,4.143ZM4.357,5.714H5.929V6.5A.786.786,0,1,0,7.5,6.5V5.714h11V6.5a.786.786,0,1,0,1.571,0V5.714h1.571a.786.786,0,0,1,.786.786V8.071H3.571V6.5A.786.786,0,0,1,4.357,5.714ZM21.643,21.429H4.357a.786.786,0,0,1-.786-.786v-11H22.429v11A.786.786,0,0,1,21.643,21.429Zm-16.5-8.643A.786.786,0,0,1,5.929,12H13a.786.786,0,1,1,0,1.571H5.929A.786.786,0,0,1,5.143,12.786Zm12.571,5.5a.786.786,0,0,1-.786.786h-11a.786.786,0,0,1,0-1.571h11A.786.786,0,0,1,17.714,18.286Z" data-name="Path 463" transform="translate(-2 -1)"/></g></g></svg>