<svg id="Capa_1" enable-background="new 0 0 512.061 512.061" height="512" viewBox="0 0 512.061 512.061" width="512" xmlns="http://www.w3.org/2000/svg" xmlns:xlink="http://www.w3.org/1999/xlink"><linearGradient id="SVGID_1_" gradientUnits="userSpaceOnUse" x1="279.06" x2="279.06" y1="406.03" y2="31.03"><stop offset="0" stop-color="#ffc2cc"/><stop offset="1" stop-color="#fff2f4"/></linearGradient><linearGradient id="SVGID_2_" gradientUnits="userSpaceOnUse" x1="210.53" x2="210.53" y1="481.03" y2="151.03"><stop offset="0" stop-color="#fd3a84"/><stop offset="1" stop-color="#ffa68d"/></linearGradient><g><g><g><path d="m256.06 286.03h-60c16.816 0 30-13.184 30-30s-13.184-30-30-30h-60c-16.816 0-30 13.184-30 30s13.184 30 30 30h-60c-16.816 0-30 13.184-30 30s13.184 30 30 30h60c-16.816 0-30 13.184-30 30s13.184 30 30 30h60c16.816 0 30-13.184 30-30s-13.184-30-30-30h60c16.816 0 30-13.184 30-30s-13.184-30-30-30zm247.768 16.612c-17.871-9.038-33.153-23.32-42.074-40.825 31.479-25.518 50.307-59.854 50.307-95.786 0-74.443-75.019-135-166-135s-165 60.557-165 135c0 13.213 2.256 25.869 6.899 38.701 1.787 4.951 6.05 8.613 11.221 9.624 46.45 9.126 83.54 37.192 96.797 73.242 1.787 4.878 5.977 8.481 11.06 9.521 27.158 5.581 55.576 5.435 85.591-2.095 29.868 23.276 67.284 36.006 104.433 36.006 6.943 0 12.979-4.761 14.59-11.514 1.609-6.752-1.628-13.74-7.824-16.874z" fill="url(#SVGID_1_)"/></g></g><g><g><path d="m166.06 181.03c-90.901 0-166 60.599-166 135 0 36 18.703 70.199 50.2 95.7-8.701 17.699-24.101 31.8-42.1 40.8-5.999 3.3-9.302 10.201-7.8 17.1 1.802 6.599 7.8 11.4 14.7 11.4 37.2 0 74.499-12.601 104.499-36 15.901 3.9 31.201 6 46.501 6 90.901 0 165-60.601 165-135 0-77.797-77.825-135-165-135zm-30 60h60c8.401 0 15 6.599 15 15 0 8.399-6.599 15-15 15h-60c-8.401 0-15-6.601-15-15 0-8.401 6.599-15 15-15zm60 150h-60c-8.401 0-15-6.601-15-15 0-8.401 6.599-15 15-15h60c8.401 0 15 6.599 15 15 0 8.399-6.599 15-15 15zm60-60h-180c-8.401 0-15-6.601-15-15 0-8.401 6.599-15 15-15h180c8.401 0 15 6.599 15 15 0 8.399-6.599 15-15 15zm30-150c8.284 0 15-6.716 15-15s-6.716-15-15-15-15 6.716-15 15c0 8.285 6.716 15 15 15zm60-30c-8.284 0-15 6.716-15 15s6.716 15 15 15 15-6.716 15-15-6.716-15-15-15zm60 0c-8.284 0-15 6.716-15 15s6.716 15 15 15 15-6.716 15-15-6.716-15-15-15z" fill="url(#SVGID_2_)"/></g></g></g></svg>