<svg xmlns="http://www.w3.org/2000/svg" xmlns:xlink="http://www.w3.org/1999/xlink" id="Capa_1" width="512" height="512" enable-background="new 0 0 512 512" viewBox="0 0 512 512"><linearGradient id="SVGID_1_" x1="256" x2="256" y1="331" y2="31" gradientUnits="userSpaceOnUse"><stop offset="0" stop-color="#00b59c"/><stop offset="1" stop-color="#9cffac"/></linearGradient><linearGradient id="SVGID_2_" x1="256" x2="256" y1="481" y2="121.337" gradientUnits="userSpaceOnUse"><stop offset="0" stop-color="#c3ffe8"/><stop offset=".997" stop-color="#f0fff4"/></linearGradient><g><g><path fill="url(#SVGID_1_)" d="m421 331h-120c-8.291 0-15-6.709-15-15v-60c0-8.291 6.709-15 15-15h15l-60-79.995-60 79.995h15c8.291 0 15 6.709 15 15v60c0 8.291-6.709 15-15 15h-120c-49.629 0-91-40.371-91-90 0-44.766 33.842-82.002 76.703-88.872 6.973-67.94 64.541-121.128 134.297-121.128 33.398 0 64.951 12.158 89.854 34.424 9.843-2.945 19.951-4.424 30.146-4.424 53.174 0 97.266 39.741 104.092 91.099 42.949 6.782 76.908 44.062 76.908 88.901 0 49.629-41.371 90-91 90z"/></g><g><g><path fill="url(#SVGID_2_)" d="m358.012 247.006-90-120c-5.684-7.559-18.34-7.559-24.023 0l-90 120c-3.398 4.541-3.955 10.62-1.406 15.703s7.733 8.291 13.417 8.291h30v135c0 8.291 6.709 15 15 15h90c8.291 0 15-6.709 15-15v-135h30c5.684 0 10.869-3.208 13.418-8.291s1.992-11.162-1.406-15.703zm-57.012 203.994h-90c-8.291 0-15 6.709-15 15s6.709 15 15 15h90c8.291 0 15-6.709 15-15s-6.709-15-15-15z"/></g></g></g></svg>