<svg id="Layer_1" data-name="Layer 1" xmlns="http://www.w3.org/2000/svg" viewBox="0 0 1080 1080"><defs><style>.cls-1,.cls-2{fill:#eab82f;}.cls-1{opacity:0.32;}.cls-2{opacity:0.28;}</style></defs><title>ICONS</title><path class="cls-1" d="M513.24,160.9c48.5-43.45,218.6,10.34,304.87,123.38,105.95,138.81,99.65,385.49-50.59,477.56C689.38,809.72,580,811.05,501.36,777.18,433,747.76,439.34,713.94,348.28,653c-121.11-81-196.5-64.2-212.2-115.63-17-55.81,51.58-141.67,132.21-173.76C368,323.94,444.4,383.19,489.77,339.11,539.22,291.07,471.4,198.38,513.24,160.9Z"/><path class="cls-2" d="M802.46,654.92c4.93,62.17-130.9,178.5-263.48,195.22-162.8,20.54-342.44-106.41-326.12-278C221.35,482.9,282,390.38,351.5,341c60.35-42.87,81.92-20.91,178.49-67.33,128.46-61.76,158.44-133.39,205.49-121.21,51,13.22,76.13,113.19,54.5,196.73-26.75,103.35-113.79,138.27-106.63,198.1C691.15,612.55,798.21,601.3,802.46,654.92Z"/><path d="M502.42,250.16A67.18,67.18,0,0,0,456.09,366a8.64,8.64,0,0,0,1.07,1,67.11,67.11,0,0,0,90.52,0,9.5,9.5,0,0,0,1.08-1,67.19,67.19,0,0,0-46.34-115.88Zm0,116.29a48.79,48.79,0,0,1-28.18-8.93,33.44,33.44,0,0,1,56.36,0A48.79,48.79,0,0,1,502.42,366.45Zm-9.35-51.9v-4.61a9.35,9.35,0,1,1,18.7,0v4.61a9.35,9.35,0,1,1-18.7,0Zm50.41,29.65a51.11,51.11,0,0,0-17.87-14.85,27.34,27.34,0,0,0,4.33-14.8v-4.61a27.52,27.52,0,0,0-55,0v4.61a27.34,27.34,0,0,0,4.33,14.8,51.11,51.11,0,0,0-17.87,14.85,49.06,49.06,0,1,1,82.12,0Z"/><path d="M607.21,565.89a35.13,35.13,0,0,0-44.78-4.08l-.3.22-50.93,38.3a9.09,9.09,0,1,0,10.92,14.53l50.76-38.18a17,17,0,0,1,21.48,2.06,14.94,14.94,0,0,1-1.16,22.16l-46.49,37.65a100.25,100.25,0,0,1-62.91,22.28H349.33a99.9,99.9,0,0,1-51.77-14.46L261,624.21v-115H331a36.1,36.1,0,0,1,25.69,10.63l48.33,48.56a36.1,36.1,0,0,0,25.7,10.65H466.4a13.61,13.61,0,0,1,0,27.22H397.93A32.26,32.26,0,0,1,380.29,601l-29.15-19L351,582a9.09,9.09,0,0,0-9.93,15.22l29.28,19a50.47,50.47,0,0,0,27.55,8.17H466.4a31.78,31.78,0,0,0,0-63.56H431.33l75.53-43.62h91.87A18.19,18.19,0,0,0,616.9,499.1V232a18.19,18.19,0,0,0-18.17-18.17H406.11A18.19,18.19,0,0,0,387.94,232V499.1a18.19,18.19,0,0,0,18.17,18.17h64.41L412.9,550.54h0L369.58,507a54.19,54.19,0,0,0-38.55-16H261V475a18.2,18.2,0,0,0-18.17-18.18h-82a9.09,9.09,0,0,0-9.09,9.09v204A9.09,9.09,0,0,0,160.8,679h82A18.19,18.19,0,0,0,261,660.83V645.46l27.17,16.46A118.2,118.2,0,0,0,349.33,679H483.8a118.51,118.51,0,0,0,74.35-26.33L604.64,615a33.1,33.1,0,0,0,2.57-49.13ZM406.11,499.1V232H598.73V499.1H406.11ZM242.8,660.83H169.88V475H242.8V628.89c0,.23,0,.46,0,.68v31.26Z"/><path d="M364.46,259.57a9.09,9.09,0,0,0-12.41-3.32l-81.79,47.22a18.19,18.19,0,0,0-6.65,24.82L343,465.78a9.09,9.09,0,1,0,15.74-9.08L279.34,319.21,361.14,272A9.08,9.08,0,0,0,364.46,259.57Z"/><path d="M558.75,406.43H453.36a9.09,9.09,0,1,0,0,18.17H558.75a9.09,9.09,0,1,0,0-18.17Z"/><path d="M565.17,449.07a9.05,9.05,0,1,0,2.67,6.42A9.13,9.13,0,0,0,565.17,449.07Z"/><path d="M520.86,446.41h-67.5a9.09,9.09,0,1,0,0,18.17h67.5a9.09,9.09,0,0,0,0-18.17Z"/><path d="M206.34,548.66a9.09,9.09,0,0,0-9.09,9.09v35.54a9.09,9.09,0,1,0,18.18,0V557.75A9.09,9.09,0,0,0,206.34,548.66Z"/><path d="M212.77,618.14a9.11,9.11,0,1,0,2.65,6.43A9.18,9.18,0,0,0,212.77,618.14Z"/><g id="_2KbhFC.tif" data-name="2KbhFC.tif"><path d="M707.83,866c-46.15,0-92.32-.52-138.46.15-44.83.65-83.26-36.7-82.24-83,.36-16.82.05-33.66.08-50.49,0-11.19,6.63-18.74,16.36-18.78s16.72,7.4,16.88,18.51c.23,16.66.51,33.34,0,50-.77,24,13.6,40.53,30.29,47.28a54.2,54.2,0,0,0,20.53,3.6q136.21.11,272.43,0c25.76,0,45.15-15.25,50-38.85.85-4.12.71-8.29.72-12.45,0-16.33-.09-32.66.07-49,.11-10.31,5-16.86,13.33-18.62,9.63-2,19.53,4.38,19.66,14.16.29,23,2,46-.78,68.89-4.66,38.12-39.52,68.44-77.93,68.55C801.81,866.12,754.82,866,707.83,866Z"/><path d="M691.14,709.13V703q0-114,0-227.91c0-10.55,6.1-17.46,15.51-17.77,10-.34,17.17,6.49,17.19,16.54q.07,40,0,80,0,75,0,149.94c0,1.75-.52,3.61.52,5.36,2-.55,2.92-2.22,4.17-3.46q28.32-28.25,56.55-56.55c4.43-4.45,9.55-6.7,15.8-5.31s10.66,4.87,12.32,11.11a16.87,16.87,0,0,1-4.68,17.4q-24.1,24-48.08,48c-13.31,13.31-26.58,26.67-40,39.92-8.45,8.37-17.88,8.25-26.32-.18q-44-44-88-88c-4.37-4.35-7.18-9.28-6.34-15.55s4.34-11.22,10.57-13.39a16.77,16.77,0,0,1,17.29,3.36c2.77,2.38,5.15,5.21,7.76,7.78C653.84,672.47,672.24,690.55,691.14,709.13Z"/></g></svg>