<svg width="32" height="32" viewBox="0 0 32 32" fill="none" xmlns="http://www.w3.org/2000/svg">
<path d="M32 0H0V32H32V0Z" fill="#231F20"/>
<path d="M7.19922 19.53H13.3592C13.3912 19.8734 13.4971 20.2059 13.6697 20.5045C13.8424 20.8031 14.0776 21.0608 14.3592 21.26C14.9799 21.7182 15.7383 21.951 16.5092 21.92C17.1428 21.961 17.773 21.7999 18.3092 21.46C18.5063 21.3304 18.6681 21.1537 18.7798 20.946C18.8916 20.7382 18.9498 20.5059 18.9492 20.27C18.9393 19.9867 18.8429 19.7132 18.6731 19.4862C18.5033 19.2592 18.2682 19.0895 17.9992 19C17.0524 18.5848 16.0723 18.2503 15.0692 18C13.8316 17.7233 12.6152 17.3591 11.4292 16.91C10.4539 16.5317 9.59034 15.9124 8.91922 15.11C8.17263 14.1697 7.79563 12.9889 7.85922 11.79C7.86269 10.6407 8.21105 9.51898 8.85922 8.56996C9.56972 7.55051 10.5544 6.75309 11.6992 6.26996C13.1106 5.67956 14.6296 5.39006 16.1592 5.41996C18.3265 5.30612 20.4606 5.98903 22.1592 7.33996C23.6322 8.63479 24.5402 10.4544 24.6892 12.41H18.9292C18.8481 11.7564 18.5142 11.1605 17.9992 10.75C17.4208 10.3241 16.7173 10.1025 15.9992 10.12C15.4096 10.0862 14.8236 10.2327 14.3192 10.54C14.1329 10.6691 13.9822 10.843 13.8808 11.0458C13.7794 11.2485 13.7307 11.4735 13.7392 11.7C13.7431 11.9789 13.8285 12.2505 13.9849 12.4815C14.1412 12.7125 14.3617 12.8927 14.6192 13C15.5541 13.3893 16.5256 13.6841 17.5192 13.88C18.7648 14.1923 19.9904 14.5797 21.1892 15.04C22.1605 15.4396 23.0189 16.0714 23.6892 16.88C24.439 17.852 24.831 19.0527 24.7992 20.28C24.8091 21.4281 24.4594 22.5506 23.7992 23.49C23.0655 24.4868 22.0681 25.2592 20.9192 25.72C19.5359 26.2832 18.0525 26.5588 16.5592 26.53C14.936 26.5528 13.3256 26.2395 11.8292 25.61C10.5387 25.0637 9.40957 24.1961 8.54922 23.09C7.76206 22.0496 7.29628 20.8017 7.20922 19.5L7.19922 19.53Z" fill="white"/>
</svg>
