<?xml version="1.0" encoding="utf-8"?>
<!-- Generator: Adobe Illustrator 23.0.3, SVG Export Plug-In . SVG Version: 6.00 Build 0)  -->
<svg version="1.1" id="Capa_1" xmlns="http://www.w3.org/2000/svg" xmlns:xlink="http://www.w3.org/1999/xlink" x="0px" y="0px"
	 viewBox="0 0 512 512" style="enable-background:new 0 0 512 512;" xml:space="preserve">
<style type="text/css">
	.st0{fill:url(#SVGID_1_);}
	.st1{fill:url(#SVGID_2_);}
	.st2{fill:url(#SVGID_3_);}
	.st3{fill:url(#SVGID_4_);}
	.st4{fill:url(#SVGID_5_);}
	.st5{fill:url(#SVGID_6_);}
	.st6{fill:url(#SVGID_7_);}
	.st7{fill:url(#SVGID_8_);}
</style>
<linearGradient id="SVGID_1_" gradientUnits="userSpaceOnUse" x1="255.8177" y1="134.1913" x2="255.8177" y2="404.1913">
	<stop  offset="0" style="stop-color:#00B59C"/>
	<stop  offset="1" style="stop-color:#9CFFAC"/>
</linearGradient>
<circle class="st0" cx="255.8" cy="269.2" r="135"/>
<linearGradient id="SVGID_2_" gradientUnits="userSpaceOnUse" x1="102.8877" y1="188.137" x2="102.8877" y2="218.137" gradientTransform="matrix(0.9296 0.3685 -0.3685 0.9296 62.6641 -16.906)">
	<stop  offset="0" style="stop-color:#00B59C"/>
	<stop  offset="1" style="stop-color:#9CFFAC"/>
</linearGradient>
<path class="st1" d="M102.9,201.4L75,190.4c-7.7-3.1-16.4,0.7-19.5,8.4c-3.1,7.7,0.7,16.4,8.4,19.5l27.9,11.1
	c7.7,3.1,16.4-0.7,19.5-8.4C114.4,213.2,110.6,204.5,102.9,201.4z"/>
<linearGradient id="SVGID_3_" gradientUnits="userSpaceOnUse" x1="419.3618" y1="188.5631" x2="419.3618" y2="218.5631" gradientTransform="matrix(0.9418 -0.3362 0.3362 0.9418 -35.0245 159.1307)">
	<stop  offset="0" style="stop-color:#00B59C"/>
	<stop  offset="1" style="stop-color:#9CFFAC"/>
</linearGradient>
<path class="st2" d="M437.4,190.7l-28.3,10.1c-7.8,2.8-11.9,11.4-9.1,19.2c2.8,7.8,11.4,11.9,19.2,9.1l28.3-10.1
	c7.8-2.8,11.9-11.4,9.1-19.2C453.8,192,445.3,187.9,437.4,190.7z"/>
<linearGradient id="SVGID_4_" gradientUnits="userSpaceOnUse" x1="101.71" y1="336.0246" x2="101.71" y2="387.2358" gradientTransform="matrix(0.9857 0.1684 -0.1684 0.9857 52.9515 -11.1971)">
	<stop  offset="0" style="stop-color:#00B59C"/>
	<stop  offset="1" style="stop-color:#9CFFAC"/>
</linearGradient>
<path class="st3" d="M95.9,341.5l-24.5,17.3c-6.8,4.8-8.4,14.1-3.6,20.9c4.8,6.8,14.1,8.4,20.9,3.6l24.5-17.3
	c6.8-4.8,8.4-14.1,3.6-20.9S102.7,336.7,95.9,341.5L95.9,341.5z"/>
<linearGradient id="SVGID_5_" gradientUnits="userSpaceOnUse" x1="404.9824" y1="129.8983" x2="404.9824" y2="181.1091" gradientTransform="matrix(0.9853 -0.1707 -0.1707 -0.9853 46.2545 584.7403)">
	<stop  offset="0" style="stop-color:#00B59C"/>
	<stop  offset="1" style="stop-color:#9CFFAC"/>
</linearGradient>
<path class="st4" d="M415.1,341.5c-6.8-4.8-16.1-3.2-20.9,3.6c-4.8,6.8-3.2,16.1,3.6,20.9l24.5,17.3c6.8,4.8,16.1,3.2,20.9-3.6
	c4.8-6.8,3.2-16.1-3.6-20.9L415.1,341.5z"/>
<g>
	<g>
		
			<linearGradient id="SVGID_6_" gradientUnits="userSpaceOnUse" x1="255.8177" y1="139.8087" x2="255.8177" y2="349.8087" gradientTransform="matrix(1 0 0 -1 0 514)">
			<stop  offset="0" style="stop-color:#C3FFE8"/>
			<stop  offset="0.9973" style="stop-color:#F0FFF4"/>
		</linearGradient>
		<path class="st5" d="M225.8,299.2c0-8.3-6.7-15-15-15s-15,6.7-15,15c0,24.8,20.2,45,45,45v15c0,8.3,6.7,15,15,15s15-6.7,15-15v-15
			c24.8,0,45-20.2,45-45s-20.2-45-45-45v-30c8.3,0,15,6.7,15,15c0,8.3,6.7,15,15,15s15-6.7,15-15c0-24.8-20.2-45-45-45v-15
			c0-8.3-6.7-15-15-15c-8.3,0-15,6.7-15,15v15c-24.8,0-45,20.2-45,45s20.2,45,45,45v30C232.5,314.2,225.8,307.5,225.8,299.2z
			 M270.8,284.2c8.3,0,15,6.7,15,15s-6.7,15-15,15V284.2z M225.8,239.2c0-8.3,6.7-15,15-15v30C232.5,254.2,225.8,247.5,225.8,239.2z
			"/>
	</g>
</g>
<linearGradient id="SVGID_7_" gradientUnits="userSpaceOnUse" x1="295.1264" y1="47.4312" x2="295.1264" y2="98.6421" gradientTransform="matrix(0.7105 0.7037 0.7037 -0.7105 -3.3577 291.3007)">
	<stop  offset="0" style="stop-color:#00B59C"/>
	<stop  offset="1" style="stop-color:#9CFFAC"/>
</linearGradient>
<path class="st6" d="M272.7,432c0-8.3-6.8-15-15.1-14.9c-8.3,0-15,6.8-14.9,15.1l0.1,30c0,8.3,6.8,15,15.1,14.9
	c8.3,0,15-6.8,14.9-15.1L272.7,432z"/>
<linearGradient id="SVGID_8_" gradientUnits="userSpaceOnUse" x1="38.4445" y1="305.3989" x2="38.4445" y2="356.6097" gradientTransform="matrix(0.7105 0.7037 0.7037 -0.7105 -3.3577 291.3007)">
	<stop  offset="0" style="stop-color:#00B59C"/>
	<stop  offset="1" style="stop-color:#9CFFAC"/>
</linearGradient>
<path class="st7" d="M271.8,68.1c0-8.3-6.8-15-15.1-14.9c-8.3,0-15,6.8-14.9,15.1l0.1,30c0,8.3,6.8,15,15.1,14.9
	c8.3,0,15-6.8,14.9-15.1L271.8,68.1z"/>
</svg>
