<svg xmlns="http://www.w3.org/2000/svg" xmlns:xlink="http://www.w3.org/1999/xlink" id="Capa_1" x="0" y="0" version="1.1" viewBox="0 0 512 512" xml:space="preserve" style="enable-background:new 0 0 512 512"><style type="text/css">.st0{fill:url(#SVGID_1_)}.st1{fill:url(#SVGID_2_)}.st2{fill:url(#SVGID_3_)}.st3{fill:url(#SVGID_4_)}.st4{fill:url(#SVGID_5_)}.st5{fill:url(#SVGID_6_)}.st6{fill:url(#SVGID_7_)}.st7{fill:url(#SVGID_8_)}</style><linearGradient id="SVGID_1_" x1="255.818" x2="255.818" y1="134.191" y2="404.191" gradientUnits="userSpaceOnUse"><stop offset="0" style="stop-color:#00b59c"/><stop offset="1" style="stop-color:#9cffac"/></linearGradient><circle cx="255.8" cy="269.2" r="135" class="st0"/><linearGradient id="SVGID_2_" x1="102.888" x2="102.888" y1="188.137" y2="218.137" gradientTransform="matrix(0.9296 0.3685 -0.3685 0.9296 62.6641 -16.906)" gradientUnits="userSpaceOnUse"><stop offset="0" style="stop-color:#00b59c"/><stop offset="1" style="stop-color:#9cffac"/></linearGradient><path d="M102.9,201.4L75,190.4c-7.7-3.1-16.4,0.7-19.5,8.4c-3.1,7.7,0.7,16.4,8.4,19.5l27.9,11.1	c7.7,3.1,16.4-0.7,19.5-8.4C114.4,213.2,110.6,204.5,102.9,201.4z" class="st1"/><linearGradient id="SVGID_3_" x1="419.362" x2="419.362" y1="188.563" y2="218.563" gradientTransform="matrix(0.9418 -0.3362 0.3362 0.9418 -35.0245 159.1307)" gradientUnits="userSpaceOnUse"><stop offset="0" style="stop-color:#00b59c"/><stop offset="1" style="stop-color:#9cffac"/></linearGradient><path d="M437.4,190.7l-28.3,10.1c-7.8,2.8-11.9,11.4-9.1,19.2c2.8,7.8,11.4,11.9,19.2,9.1l28.3-10.1	c7.8-2.8,11.9-11.4,9.1-19.2C453.8,192,445.3,187.9,437.4,190.7z" class="st2"/><linearGradient id="SVGID_4_" x1="101.71" x2="101.71" y1="336.025" y2="387.236" gradientTransform="matrix(0.9857 0.1684 -0.1684 0.9857 52.9515 -11.1971)" gradientUnits="userSpaceOnUse"><stop offset="0" style="stop-color:#00b59c"/><stop offset="1" style="stop-color:#9cffac"/></linearGradient><path d="M95.9,341.5l-24.5,17.3c-6.8,4.8-8.4,14.1-3.6,20.9c4.8,6.8,14.1,8.4,20.9,3.6l24.5-17.3	c6.8-4.8,8.4-14.1,3.6-20.9S102.7,336.7,95.9,341.5L95.9,341.5z" class="st3"/><linearGradient id="SVGID_5_" x1="404.982" x2="404.982" y1="129.898" y2="181.109" gradientTransform="matrix(0.9853 -0.1707 -0.1707 -0.9853 46.2545 584.7403)" gradientUnits="userSpaceOnUse"><stop offset="0" style="stop-color:#00b59c"/><stop offset="1" style="stop-color:#9cffac"/></linearGradient><path d="M415.1,341.5c-6.8-4.8-16.1-3.2-20.9,3.6c-4.8,6.8-3.2,16.1,3.6,20.9l24.5,17.3c6.8,4.8,16.1,3.2,20.9-3.6	c4.8-6.8,3.2-16.1-3.6-20.9L415.1,341.5z" class="st4"/><g><g><linearGradient id="SVGID_6_" x1="255.818" x2="255.818" y1="139.809" y2="349.809" gradientTransform="matrix(1 0 0 -1 0 514)" gradientUnits="userSpaceOnUse"><stop offset="0" style="stop-color:#c3ffe8"/><stop offset=".997" style="stop-color:#f0fff4"/></linearGradient><path d="M225.8,299.2c0-8.3-6.7-15-15-15s-15,6.7-15,15c0,24.8,20.2,45,45,45v15c0,8.3,6.7,15,15,15s15-6.7,15-15v-15 c24.8,0,45-20.2,45-45s-20.2-45-45-45v-30c8.3,0,15,6.7,15,15c0,8.3,6.7,15,15,15s15-6.7,15-15c0-24.8-20.2-45-45-45v-15 c0-8.3-6.7-15-15-15c-8.3,0-15,6.7-15,15v15c-24.8,0-45,20.2-45,45s20.2,45,45,45v30C232.5,314.2,225.8,307.5,225.8,299.2z M270.8,284.2c8.3,0,15,6.7,15,15s-6.7,15-15,15V284.2z M225.8,239.2c0-8.3,6.7-15,15-15v30C232.5,254.2,225.8,247.5,225.8,239.2z" class="st5"/></g></g><linearGradient id="SVGID_7_" x1="295.126" x2="295.126" y1="47.431" y2="98.642" gradientTransform="matrix(0.7105 0.7037 0.7037 -0.7105 -3.3577 291.3007)" gradientUnits="userSpaceOnUse"><stop offset="0" style="stop-color:#00b59c"/><stop offset="1" style="stop-color:#9cffac"/></linearGradient><path d="M272.7,432c0-8.3-6.8-15-15.1-14.9c-8.3,0-15,6.8-14.9,15.1l0.1,30c0,8.3,6.8,15,15.1,14.9	c8.3,0,15-6.8,14.9-15.1L272.7,432z" class="st6"/><linearGradient id="SVGID_8_" x1="38.444" x2="38.444" y1="305.399" y2="356.61" gradientTransform="matrix(0.7105 0.7037 0.7037 -0.7105 -3.3577 291.3007)" gradientUnits="userSpaceOnUse"><stop offset="0" style="stop-color:#00b59c"/><stop offset="1" style="stop-color:#9cffac"/></linearGradient><path d="M271.8,68.1c0-8.3-6.8-15-15.1-14.9c-8.3,0-15,6.8-14.9,15.1l0.1,30c0,8.3,6.8,15,15.1,14.9	c8.3,0,15-6.8,14.9-15.1L271.8,68.1z" class="st7"/></svg>