<svg xmlns="http://www.w3.org/2000/svg" width="253" height="167" fill="none" viewBox="0 0 253 167"><circle cx="3.418" cy="3.367" r="3" fill="#D6E3FF"/><circle cx="17.876" cy="3.367" r="3" fill="#D6E3FF"/><circle cx="32.334" cy="3.367" r="3" fill="#D6E3FF"/><circle cx="46.793" cy="3.367" r="3" fill="#D6E3FF"/><circle cx="61.251" cy="3.367" r="3" fill="#D6E3FF"/><circle cx="75.709" cy="3.367" r="3" fill="#D6E3FF"/><circle cx="90.167" cy="3.367" r="3" fill="#D6E3FF"/><circle cx="104.625" cy="3.367" r="3" fill="#D6E3FF"/><circle cx="119.084" cy="3.367" r="3" fill="#D6E3FF"/><circle cx="133.542" cy="3.367" r="3" fill="#D6E3FF"/><circle cx="148" cy="3.367" r="3" fill="#D6E3FF"/><circle cx="162.459" cy="3.367" r="3" fill="#D6E3FF"/><circle cx="176.917" cy="3.367" r="3" fill="#D6E3FF"/><circle cx="191.375" cy="3.367" r="3" fill="#D6E3FF"/><circle cx="205.833" cy="3.367" r="3" fill="#D6E3FF"/><circle cx="220.292" cy="3.367" r="3" fill="#D6E3FF"/><circle cx="234.75" cy="3.367" r="3" fill="#D6E3FF"/><circle cx="249.208" cy="3.367" r="3" fill="#D6E3FF"/><circle cx="3.418" cy="17.937" r="3" fill="#D6E3FF"/><circle cx="17.876" cy="17.937" r="3" fill="#D6E3FF"/><circle cx="32.334" cy="17.937" r="3" fill="#D6E3FF"/><circle cx="46.793" cy="17.937" r="3" fill="#D6E3FF"/><circle cx="61.251" cy="17.937" r="3" fill="#D6E3FF"/><circle cx="75.709" cy="17.937" r="3" fill="#D6E3FF"/><circle cx="90.167" cy="17.937" r="3" fill="#D6E3FF"/><circle cx="104.625" cy="17.937" r="3" fill="#D6E3FF"/><circle cx="119.084" cy="17.937" r="3" fill="#D6E3FF"/><circle cx="133.542" cy="17.937" r="3" fill="#D6E3FF"/><circle cx="148" cy="17.937" r="3" fill="#D6E3FF"/><circle cx="162.459" cy="17.937" r="3" fill="#D6E3FF"/><circle cx="176.917" cy="17.937" r="3" fill="#D6E3FF"/><circle cx="191.375" cy="17.937" r="3" fill="#D6E3FF"/><circle cx="205.833" cy="17.937" r="3" fill="#D6E3FF"/><circle cx="220.292" cy="17.937" r="3" fill="#D6E3FF"/><circle cx="234.75" cy="17.937" r="3" fill="#D6E3FF"/><circle cx="249.208" cy="17.937" r="3" fill="#D6E3FF"/><circle cx="3.418" cy="32.507" r="3" fill="#D6E3FF"/><circle cx="17.876" cy="32.507" r="3" fill="#D6E3FF"/><circle cx="32.334" cy="32.507" r="3" fill="#D6E3FF"/><circle cx="46.793" cy="32.507" r="3" fill="#D6E3FF"/><circle cx="61.251" cy="32.507" r="3" fill="#D6E3FF"/><circle cx="75.709" cy="32.507" r="3" fill="#D6E3FF"/><circle cx="90.167" cy="32.507" r="3" fill="#D6E3FF"/><circle cx="104.625" cy="32.507" r="3" fill="#D6E3FF"/><circle cx="119.084" cy="32.507" r="3" fill="#D6E3FF"/><circle cx="133.542" cy="32.507" r="3" fill="#D6E3FF"/><circle cx="148" cy="32.507" r="3" fill="#D6E3FF"/><circle cx="162.459" cy="32.507" r="3" fill="#D6E3FF"/><circle cx="176.917" cy="32.507" r="3" fill="#D6E3FF"/><circle cx="191.375" cy="32.507" r="3" fill="#D6E3FF"/><circle cx="205.833" cy="32.507" r="3" fill="#D6E3FF"/><circle cx="220.292" cy="32.507" r="3" fill="#D6E3FF"/><circle cx="234.75" cy="32.507" r="3" fill="#D6E3FF"/><circle cx="249.208" cy="32.507" r="3" fill="#D6E3FF"/><circle cx="3.418" cy="47.076" r="3" fill="#D6E3FF"/><circle cx="17.876" cy="47.076" r="3" fill="#D6E3FF"/><circle cx="32.334" cy="47.076" r="3" fill="#D6E3FF"/><circle cx="46.793" cy="47.076" r="3" fill="#D6E3FF"/><circle cx="61.251" cy="47.076" r="3" fill="#D6E3FF"/><circle cx="75.709" cy="47.076" r="3" fill="#D6E3FF"/><circle cx="90.167" cy="47.076" r="3" fill="#D6E3FF"/><circle cx="104.625" cy="47.076" r="3" fill="#D6E3FF"/><circle cx="119.084" cy="47.076" r="3" fill="#D6E3FF"/><circle cx="133.542" cy="47.076" r="3" fill="#D6E3FF"/><circle cx="148" cy="47.076" r="3" fill="#D6E3FF"/><circle cx="162.459" cy="47.076" r="3" fill="#D6E3FF"/><circle cx="176.917" cy="47.076" r="3" fill="#D6E3FF"/><circle cx="191.375" cy="47.076" r="3" fill="#D6E3FF"/><circle cx="205.833" cy="47.076" r="3" fill="#D6E3FF"/><circle cx="220.292" cy="47.076" r="3" fill="#D6E3FF"/><circle cx="234.75" cy="47.076" r="3" fill="#D6E3FF"/><circle cx="249.208" cy="47.076" r="3" fill="#D6E3FF"/><circle cx="3.418" cy="61.646" r="3" fill="#D6E3FF"/><circle cx="17.876" cy="61.646" r="3" fill="#D6E3FF"/><circle cx="32.334" cy="61.646" r="3" fill="#D6E3FF"/><circle cx="46.793" cy="61.646" r="3" fill="#D6E3FF"/><circle cx="61.251" cy="61.646" r="3" fill="#D6E3FF"/><circle cx="75.709" cy="61.646" r="3" fill="#D6E3FF"/><circle cx="90.167" cy="61.646" r="3" fill="#D6E3FF"/><circle cx="104.625" cy="61.646" r="3" fill="#D6E3FF"/><circle cx="119.084" cy="61.646" r="3" fill="#D6E3FF"/><circle cx="133.542" cy="61.646" r="3" fill="#D6E3FF"/><circle cx="148" cy="61.646" r="3" fill="#D6E3FF"/><circle cx="162.459" cy="61.646" r="3" fill="#D6E3FF"/><circle cx="176.917" cy="61.646" r="3" fill="#D6E3FF"/><circle cx="191.375" cy="61.646" r="3" fill="#D6E3FF"/><circle cx="205.833" cy="61.646" r="3" fill="#D6E3FF"/><circle cx="220.292" cy="61.646" r="3" fill="#D6E3FF"/><circle cx="234.75" cy="61.646" r="3" fill="#D6E3FF"/><circle cx="249.208" cy="61.646" r="3" fill="#D6E3FF"/><circle cx="3.418" cy="76.216" r="3" fill="#D6E3FF"/><circle cx="17.876" cy="76.216" r="3" fill="#D6E3FF"/><circle cx="32.334" cy="76.216" r="3" fill="#D6E3FF"/><circle cx="46.793" cy="76.216" r="3" fill="#D6E3FF"/><circle cx="61.251" cy="76.216" r="3" fill="#D6E3FF"/><circle cx="75.709" cy="76.216" r="3" fill="#D6E3FF"/><circle cx="90.167" cy="76.216" r="3" fill="#D6E3FF"/><circle cx="104.625" cy="76.216" r="3" fill="#D6E3FF"/><circle cx="119.084" cy="76.216" r="3" fill="#D6E3FF"/><circle cx="133.542" cy="76.216" r="3" fill="#D6E3FF"/><circle cx="148" cy="76.216" r="3" fill="#D6E3FF"/><circle cx="162.459" cy="76.216" r="3" fill="#D6E3FF"/><circle cx="176.917" cy="76.216" r="3" fill="#D6E3FF"/><circle cx="191.375" cy="76.216" r="3" fill="#D6E3FF"/><circle cx="205.833" cy="76.216" r="3" fill="#D6E3FF"/><circle cx="220.292" cy="76.216" r="3" fill="#D6E3FF"/><circle cx="234.75" cy="76.216" r="3" fill="#D6E3FF"/><circle cx="249.208" cy="76.216" r="3" fill="#D6E3FF"/><circle cx="3.418" cy="90.785" r="3" fill="#D6E3FF"/><circle cx="17.876" cy="90.785" r="3" fill="#D6E3FF"/><circle cx="32.334" cy="90.785" r="3" fill="#D6E3FF"/><circle cx="46.793" cy="90.785" r="3" fill="#D6E3FF"/><circle cx="61.251" cy="90.785" r="3" fill="#D6E3FF"/><circle cx="75.709" cy="90.785" r="3" fill="#D6E3FF"/><circle cx="90.167" cy="90.785" r="3" fill="#D6E3FF"/><circle cx="104.625" cy="90.785" r="3" fill="#D6E3FF"/><circle cx="119.084" cy="90.785" r="3" fill="#D6E3FF"/><circle cx="133.542" cy="90.785" r="3" fill="#D6E3FF"/><circle cx="148" cy="90.785" r="3" fill="#D6E3FF"/><circle cx="162.459" cy="90.785" r="3" fill="#D6E3FF"/><circle cx="176.917" cy="90.785" r="3" fill="#D6E3FF"/><circle cx="191.375" cy="90.785" r="3" fill="#D6E3FF"/><circle cx="205.833" cy="90.785" r="3" fill="#D6E3FF"/><circle cx="220.292" cy="90.785" r="3" fill="#D6E3FF"/><circle cx="234.75" cy="90.785" r="3" fill="#D6E3FF"/><circle cx="249.208" cy="90.785" r="3" fill="#D6E3FF"/><circle cx="3.418" cy="105.355" r="3" fill="#D6E3FF"/><circle cx="17.876" cy="105.355" r="3" fill="#D6E3FF"/><circle cx="32.334" cy="105.355" r="3" fill="#D6E3FF"/><circle cx="46.793" cy="105.355" r="3" fill="#D6E3FF"/><circle cx="61.251" cy="105.355" r="3" fill="#D6E3FF"/><circle cx="75.709" cy="105.355" r="3" fill="#D6E3FF"/><circle cx="90.167" cy="105.355" r="3" fill="#D6E3FF"/><circle cx="104.625" cy="105.355" r="3" fill="#D6E3FF"/><circle cx="119.084" cy="105.355" r="3" fill="#D6E3FF"/><circle cx="133.542" cy="105.355" r="3" fill="#D6E3FF"/><circle cx="148" cy="105.355" r="3" fill="#D6E3FF"/><circle cx="162.459" cy="105.355" r="3" fill="#D6E3FF"/><circle cx="176.917" cy="105.355" r="3" fill="#D6E3FF"/><circle cx="191.375" cy="105.355" r="3" fill="#D6E3FF"/><circle cx="205.833" cy="105.355" r="3" fill="#D6E3FF"/><circle cx="220.292" cy="105.355" r="3" fill="#D6E3FF"/><circle cx="234.75" cy="105.355" r="3" fill="#D6E3FF"/><circle cx="249.208" cy="105.355" r="3" fill="#D6E3FF"/><circle cx="3.418" cy="119.924" r="3" fill="#D6E3FF"/><circle cx="17.876" cy="119.924" r="3" fill="#D6E3FF"/><circle cx="32.334" cy="119.924" r="3" fill="#D6E3FF"/><circle cx="46.793" cy="119.924" r="3" fill="#D6E3FF"/><circle cx="61.251" cy="119.924" r="3" fill="#D6E3FF"/><circle cx="75.709" cy="119.924" r="3" fill="#D6E3FF"/><circle cx="90.167" cy="119.924" r="3" fill="#D6E3FF"/><circle cx="104.625" cy="119.924" r="3" fill="#D6E3FF"/><circle cx="119.084" cy="119.924" r="3" fill="#D6E3FF"/><circle cx="133.542" cy="119.924" r="3" fill="#D6E3FF"/><circle cx="148" cy="119.924" r="3" fill="#D6E3FF"/><circle cx="162.459" cy="119.924" r="3" fill="#D6E3FF"/><circle cx="176.917" cy="119.924" r="3" fill="#D6E3FF"/><circle cx="191.375" cy="119.924" r="3" fill="#D6E3FF"/><circle cx="205.833" cy="119.924" r="3" fill="#D6E3FF"/><circle cx="220.292" cy="119.924" r="3" fill="#D6E3FF"/><circle cx="234.75" cy="119.924" r="3" fill="#D6E3FF"/><circle cx="249.208" cy="119.924" r="3" fill="#D6E3FF"/><circle cx="3.418" cy="134.494" r="3" fill="#D6E3FF"/><circle cx="17.876" cy="134.494" r="3" fill="#D6E3FF"/><circle cx="32.334" cy="134.494" r="3" fill="#D6E3FF"/><circle cx="46.793" cy="134.494" r="3" fill="#D6E3FF"/><circle cx="61.251" cy="134.494" r="3" fill="#D6E3FF"/><circle cx="75.709" cy="134.494" r="3" fill="#D6E3FF"/><circle cx="90.167" cy="134.494" r="3" fill="#D6E3FF"/><circle cx="104.625" cy="134.494" r="3" fill="#D6E3FF"/><circle cx="119.084" cy="134.494" r="3" fill="#D6E3FF"/><circle cx="133.542" cy="134.494" r="3" fill="#D6E3FF"/><circle cx="148" cy="134.494" r="3" fill="#D6E3FF"/><circle cx="162.459" cy="134.494" r="3" fill="#D6E3FF"/><circle cx="176.917" cy="134.494" r="3" fill="#D6E3FF"/><circle cx="191.375" cy="134.494" r="3" fill="#D6E3FF"/><circle cx="205.833" cy="134.494" r="3" fill="#D6E3FF"/><circle cx="220.292" cy="134.494" r="3" fill="#D6E3FF"/><circle cx="234.75" cy="134.494" r="3" fill="#D6E3FF"/><circle cx="249.208" cy="134.494" r="3" fill="#D6E3FF"/><circle cx="3.418" cy="149.064" r="3" fill="#D6E3FF"/><circle cx="17.876" cy="149.064" r="3" fill="#D6E3FF"/><circle cx="32.334" cy="149.064" r="3" fill="#D6E3FF"/><circle cx="46.793" cy="149.064" r="3" fill="#D6E3FF"/><circle cx="61.251" cy="149.064" r="3" fill="#D6E3FF"/><circle cx="75.709" cy="149.064" r="3" fill="#D6E3FF"/><circle cx="90.167" cy="149.064" r="3" fill="#D6E3FF"/><circle cx="104.625" cy="149.064" r="3" fill="#D6E3FF"/><circle cx="119.084" cy="149.064" r="3" fill="#D6E3FF"/><circle cx="133.542" cy="149.064" r="3" fill="#D6E3FF"/><circle cx="148" cy="149.064" r="3" fill="#D6E3FF"/><circle cx="162.459" cy="149.064" r="3" fill="#D6E3FF"/><circle cx="176.917" cy="149.064" r="3" fill="#D6E3FF"/><circle cx="191.375" cy="149.064" r="3" fill="#D6E3FF"/><circle cx="205.833" cy="149.064" r="3" fill="#D6E3FF"/><circle cx="220.292" cy="149.064" r="3" fill="#D6E3FF"/><circle cx="234.75" cy="149.064" r="3" fill="#D6E3FF"/><circle cx="249.208" cy="149.064" r="3" fill="#D6E3FF"/><circle cx="3.418" cy="163.633" r="3" fill="#D6E3FF"/><circle cx="17.876" cy="163.633" r="3" fill="#D6E3FF"/><circle cx="32.334" cy="163.633" r="3" fill="#D6E3FF"/><circle cx="46.793" cy="163.633" r="3" fill="#D6E3FF"/><circle cx="61.251" cy="163.633" r="3" fill="#D6E3FF"/><circle cx="75.709" cy="163.633" r="3" fill="#D6E3FF"/><circle cx="90.167" cy="163.633" r="3" fill="#D6E3FF"/><circle cx="104.625" cy="163.633" r="3" fill="#D6E3FF"/><circle cx="119.084" cy="163.633" r="3" fill="#D6E3FF"/><circle cx="133.542" cy="163.633" r="3" fill="#D6E3FF"/><circle cx="148" cy="163.633" r="3" fill="#D6E3FF"/><circle cx="162.459" cy="163.633" r="3" fill="#D6E3FF"/><circle cx="176.917" cy="163.633" r="3" fill="#D6E3FF"/><circle cx="191.375" cy="163.633" r="3" fill="#D6E3FF"/><circle cx="205.833" cy="163.633" r="3" fill="#D6E3FF"/><circle cx="220.292" cy="163.633" r="3" fill="#D6E3FF"/><circle cx="234.75" cy="163.633" r="3" fill="#D6E3FF"/><circle cx="249.208" cy="163.633" r="3" fill="#D6E3FF"/></svg>