<svg xmlns="http://www.w3.org/2000/svg" width="24.972" height="30.733" viewBox="0 0 24.972 30.733"><g id="Group_28462" data-name="Group 28462" opacity=".9" transform="translate(-453.042 -134.635)"><g id="Group_28424" data-name="Group 28424" transform="translate(453.547 141.797)"><path id="Path_22229" fill="#dd1e33" d="M454.63,157.155v20.663l12.5-7.216Z" data-name="Path 22229" transform="translate(-454.63 -157.155)"/></g><g id="Group_28425" data-name="Group 28425" transform="translate(453.567 134.769)"><path id="Path_22230" fill="#e7e5e5" d="M454.693,142.212l12.446-7.155s.094.357,1.017,1.073a6.993,6.993,0,0,0,2.655.979l-12.785,7.325a3.851,3.851,0,0,1-2.184-.621A5.475,5.475,0,0,1,454.693,142.212Z" data-name="Path 22230" transform="translate(-454.693 -135.057)"/></g><g id="Group_28426" data-name="Group 28426" transform="translate(456.681 136.709)"><path id="Path_22231" fill="#16c4bc" d="M464.933,148.594l12.56-7.437h-.56l-12.447,7.158Z" data-name="Path 22231" transform="translate(-464.485 -141.157)"/></g><g id="Group_28427" data-name="Group 28427" transform="translate(453.293 134.635)"><path id="Path_22232" fill="#17bec0" d="M454.278,142.195l12.345-7.309-.132-.251-12.66,7.281Z" data-name="Path 22232" transform="translate(-453.83 -134.635)"/></g><g id="Group_28428" data-name="Group 28428" transform="translate(453.042 141.833)"><path id="Path_22233" fill="#00c1b8" d="M457.191,179.236a.516.516,0,0,1-.509.522l-3.439-1.86c-.234-.07-.2-.54-.2-.828V157.654c0-.056.4-.383.4-.383l3.307,1.767c.448.133.382.258.382.546Z" data-name="Path 22233" transform="translate(-453.043 -157.271)"/></g><g id="Group_28429" data-name="Group 28429" transform="translate(456.908 136.709)"><path id="Path_22234" fill="#00c1b8" d="M465.2,168.712l12.782-6.891V141.157l-12.56,7.437Z" data-name="Path 22234" transform="translate(-465.199 -141.157)"/></g><g id="Group_28430" data-name="Group 28430" transform="translate(460.062 141.049)"><path id="Path_22235" fill="#ffc23a" d="M475.117,159.091l7.46-4.289v1.146l-7.339,4.524Z" data-name="Path 22235" transform="translate(-475.117 -154.803)"/></g><g id="Group_28431" data-name="Group 28431" transform="translate(460.062 143.223)"><path id="Path_22236" fill="#ffc23a" d="M475.117,165.929l7.46-4.289v1.146l-7.339,4.524Z" data-name="Path 22236" transform="translate(-475.117 -161.641)"/></g><g id="Group_28432" data-name="Group 28432" transform="translate(461.871 142.844)"><path id="Path_22237" fill="#dd1e33" d="M480.8,160.447v20.663l12.5-7.216Z" data-name="Path 22237" transform="translate(-480.805 -160.447)"/></g><g id="Group_28433" data-name="Group 28433" transform="translate(461.891 135.816)"><path id="Path_22238" fill="#e7e5e5" d="M480.868,145.5l12.446-7.155s.094.357,1.017,1.073a6.991,6.991,0,0,0,2.655.979L484.2,147.726a3.854,3.854,0,0,1-2.184-.622A5.473,5.473,0,0,1,480.868,145.5Z" data-name="Path 22238" transform="translate(-480.868 -138.349)"/></g><g id="Group_28434" data-name="Group 28434" transform="translate(465.005 137.756)"><path id="Path_22239" fill="#ea5645" d="M491.108,151.887l12.56-7.437h-.56l-12.447,7.158Z" data-name="Path 22239" transform="translate(-490.66 -144.45)"/></g><g id="Group_28435" data-name="Group 28435" transform="translate(461.617 135.682)"><path id="Path_22240" fill="#ea5645" d="M480.452,145.487l12.345-7.309-.132-.251L480,145.209Z" data-name="Path 22240" transform="translate(-480.005 -137.927)"/></g><g id="Group_28436" data-name="Group 28436" transform="translate(461.366 142.881)"><path id="Path_22241" fill="#ff5d64" d="M483.365,182.529a.516.516,0,0,1-.509.522l-3.44-1.86c-.233-.07-.2-.54-.2-.828V160.946c0-.056.4-.382.4-.382l3.307,1.767c.448.133.382.258.382.546Z" data-name="Path 22241" transform="translate(-479.217 -160.564)"/></g><g id="Group_28437" data-name="Group 28437" transform="translate(453.918 134.886)"><path id="Path_22242" fill="#cececd" d="M455.8,142.627l12.166-7.2a3.644,3.644,0,0,0,.945.956L457,143.267Z" data-name="Path 22242" transform="translate(-455.798 -135.424)"/></g><g id="Group_28438" data-name="Group 28438" transform="translate(462.202 135.959)"><path id="Path_22243" fill="#cececd" d="M481.845,146l12.166-7.2a5.327,5.327,0,0,0,1.072.991l-12.04,6.852Z" data-name="Path 22243" transform="translate(-481.845 -138.799)"/></g><g id="Group_28439" data-name="Group 28439" transform="translate(461.368 140.703)"><path id="Path_22244" fill="#d13431" d="M479.224,156.277l4.085,1.93,3.906-2.313-.384-.249-3.668,2.109-3.062-1.6,3.659-2.168-.357-.266-3.93,2.26Z" data-name="Path 22244" transform="translate(-479.224 -153.717)"/></g><g id="Group_28440" data-name="Group 28440" transform="translate(453.042 139.648)"><path id="Path_22245" fill="#16c4bc" d="M453.045,152.967l4.085,1.93,3.905-2.312-.381-.282-3.627,2.081L454,152.8l3.618-2.139-.353-.262-4.22,2.427Z" data-name="Path 22245" transform="translate(-453.043 -150.4)"/></g><path id="Path_22246" fill="#d13431" d="M479.219,161.766l0,20.244.972.418.172-20.123Z" data-name="Path 22246" transform="translate(-17.851 -18.503)"/><g id="Group_28441" data-name="Group 28441" transform="translate(461.366 146.384)"><path id="Path_22247" fill="#119998" d="M479.219,172.215l4.146,2.046.032-.725-4.18-1.955Z" data-name="Path 22247" transform="translate(-479.217 -171.581)"/></g><g id="Group_28442" data-name="Group 28442" transform="translate(461.366 147.834)"><path id="Path_22248" fill="#ffc23a" d="M479.219,176.774l4.146,2.046.032-.725-4.18-1.955Z" data-name="Path 22248" transform="translate(-479.217 -176.14)"/></g><g id="Group_28443" data-name="Group 28443" transform="translate(461.366 149.284)"><path id="Path_22249" fill="#119998" d="M479.219,181.332l4.146,2.046.032-.725-4.18-1.955Z" data-name="Path 22249" transform="translate(-479.217 -180.698)"/></g><g id="Group_28444" data-name="Group 28444" transform="translate(465.232 137.756)"><path id="Path_22250" fill="#ff5d64" d="M491.373,172l12.782-6.891V144.45l-12.56,7.437Z" data-name="Path 22250" transform="translate(-491.373 -144.45)"/></g><g id="Group_28445" data-name="Group 28445" transform="translate(468.386 142.095)"><path id="Path_22251" d="M501.292,162.384l7.46-4.289v1.146l-7.339,4.524Z" data-name="Path 22251" transform="translate(-501.292 -158.095)"/></g><g id="Group_28446" data-name="Group 28446" transform="translate(468.386 144.27)"><path id="Path_22252" d="M501.292,169.221l7.46-4.289v1.147l-7.339,4.524Z" data-name="Path 22252" transform="translate(-501.292 -164.932)"/></g><path id="Path_22253" fill="#16c4bc" d="M453.045,158.474l0,20.244,1.04.455L453.95,158.9Z" data-name="Path 22253" transform="translate(-0.001 -16.258)"/><g id="Group_28447" data-name="Group 28447" transform="translate(453.042 145.337)"><path id="Path_22254" fill="#ffc23a" d="M453.044,168.923l4.043,1.995.008-.733-4.053-1.9Z" data-name="Path 22254" transform="translate(-453.042 -168.288)"/></g><g id="Group_28448" data-name="Group 28448" transform="translate(453.042 146.787)"><path id="Path_22255" fill="#ffc23a" d="M453.044,173.481l4.027,1.987.024-.726-4.053-1.9Z" data-name="Path 22255" transform="translate(-453.042 -172.847)"/></g><g id="Group_28449" data-name="Group 28449" transform="translate(453.042 148.237)"><path id="Path_22256" fill="#ffc23a" d="M453.044,178.041l4.011,1.979.008-.733-4.021-1.881Z" data-name="Path 22256" transform="translate(-453.042 -177.406)"/></g></g></svg>