<svg width="253" height="167" viewBox="0 0 253 167" fill="none" xmlns="http://www.w3.org/2000/svg">
<circle cx="3.41772" cy="3.36707" r="3" fill="#F9F1AF"/>
<circle cx="17.8761" cy="3.36707" r="3" fill="#F9F1AF"/>
<circle cx="32.3342" cy="3.36707" r="3" fill="#F9F1AF"/>
<circle cx="46.7926" cy="3.36707" r="3" fill="#F9F1AF"/>
<circle cx="61.2506" cy="3.36707" r="3" fill="#F9F1AF"/>
<circle cx="75.7091" cy="3.36707" r="3" fill="#F9F1AF"/>
<circle cx="90.1671" cy="3.36707" r="3" fill="#F9F1AF"/>
<circle cx="104.625" cy="3.36707" r="3" fill="#F9F1AF"/>
<circle cx="119.084" cy="3.36707" r="3" fill="#F9F1AF"/>
<circle cx="133.542" cy="3.36707" r="3" fill="#F9F1AF"/>
<circle cx="148" cy="3.36707" r="3" fill="#F9F1AF"/>
<circle cx="162.459" cy="3.36707" r="3" fill="#F9F1AF"/>
<circle cx="176.917" cy="3.36707" r="3" fill="#F9F1AF"/>
<circle cx="191.375" cy="3.36707" r="3" fill="#F9F1AF"/>
<circle cx="205.833" cy="3.36707" r="3" fill="#F9F1AF"/>
<circle cx="220.292" cy="3.36707" r="3" fill="#F9F1AF"/>
<circle cx="234.75" cy="3.36707" r="3" fill="#F9F1AF"/>
<circle cx="249.208" cy="3.36707" r="3" fill="#F9F1AF"/>
<circle cx="3.41772" cy="17.9366" r="3" fill="#F9F1AF"/>
<circle cx="17.8761" cy="17.9366" r="3" fill="#F9F1AF"/>
<circle cx="32.3342" cy="17.9366" r="3" fill="#F9F1AF"/>
<circle cx="46.7926" cy="17.9366" r="3" fill="#F9F1AF"/>
<circle cx="61.2506" cy="17.9366" r="3" fill="#F9F1AF"/>
<circle cx="75.7091" cy="17.9366" r="3" fill="#F9F1AF"/>
<circle cx="90.1671" cy="17.9366" r="3" fill="#F9F1AF"/>
<circle cx="104.625" cy="17.9366" r="3" fill="#F9F1AF"/>
<circle cx="119.084" cy="17.9366" r="3" fill="#F9F1AF"/>
<circle cx="133.542" cy="17.9366" r="3" fill="#F9F1AF"/>
<circle cx="148" cy="17.9366" r="3" fill="#F9F1AF"/>
<circle cx="162.459" cy="17.9366" r="3" fill="#F9F1AF"/>
<circle cx="176.917" cy="17.9366" r="3" fill="#F9F1AF"/>
<circle cx="191.375" cy="17.9366" r="3" fill="#F9F1AF"/>
<circle cx="205.833" cy="17.9366" r="3" fill="#F9F1AF"/>
<circle cx="220.292" cy="17.9366" r="3" fill="#F9F1AF"/>
<circle cx="234.75" cy="17.9366" r="3" fill="#F9F1AF"/>
<circle cx="249.208" cy="17.9366" r="3" fill="#F9F1AF"/>
<circle cx="3.41772" cy="32.5067" r="3" fill="#F9F1AF"/>
<circle cx="17.8761" cy="32.5067" r="3" fill="#F9F1AF"/>
<circle cx="32.3342" cy="32.5067" r="3" fill="#F9F1AF"/>
<circle cx="46.7926" cy="32.5067" r="3" fill="#F9F1AF"/>
<circle cx="61.2506" cy="32.5067" r="3" fill="#F9F1AF"/>
<circle cx="75.7091" cy="32.5067" r="3" fill="#F9F1AF"/>
<circle cx="90.1671" cy="32.5067" r="3" fill="#F9F1AF"/>
<circle cx="104.625" cy="32.5067" r="3" fill="#F9F1AF"/>
<circle cx="119.084" cy="32.5067" r="3" fill="#F9F1AF"/>
<circle cx="133.542" cy="32.5067" r="3" fill="#F9F1AF"/>
<circle cx="148" cy="32.5067" r="3" fill="#F9F1AF"/>
<circle cx="162.459" cy="32.5067" r="3" fill="#F9F1AF"/>
<circle cx="176.917" cy="32.5067" r="3" fill="#F9F1AF"/>
<circle cx="191.375" cy="32.5067" r="3" fill="#F9F1AF"/>
<circle cx="205.833" cy="32.5067" r="3" fill="#F9F1AF"/>
<circle cx="220.292" cy="32.5067" r="3" fill="#F9F1AF"/>
<circle cx="234.75" cy="32.5067" r="3" fill="#F9F1AF"/>
<circle cx="249.208" cy="32.5067" r="3" fill="#F9F1AF"/>
<circle cx="3.41772" cy="47.0763" r="3" fill="#F9F1AF"/>
<circle cx="17.8761" cy="47.0763" r="3" fill="#F9F1AF"/>
<circle cx="32.3342" cy="47.0763" r="3" fill="#F9F1AF"/>
<circle cx="46.7926" cy="47.0763" r="3" fill="#F9F1AF"/>
<circle cx="61.2506" cy="47.0763" r="3" fill="#F9F1AF"/>
<circle cx="75.7091" cy="47.0763" r="3" fill="#F9F1AF"/>
<circle cx="90.1671" cy="47.0763" r="3" fill="#F9F1AF"/>
<circle cx="104.625" cy="47.0763" r="3" fill="#F9F1AF"/>
<circle cx="119.084" cy="47.0763" r="3" fill="#F9F1AF"/>
<circle cx="133.542" cy="47.0763" r="3" fill="#F9F1AF"/>
<circle cx="148" cy="47.0763" r="3" fill="#F9F1AF"/>
<circle cx="162.459" cy="47.0763" r="3" fill="#F9F1AF"/>
<circle cx="176.917" cy="47.0763" r="3" fill="#F9F1AF"/>
<circle cx="191.375" cy="47.0763" r="3" fill="#F9F1AF"/>
<circle cx="205.833" cy="47.0763" r="3" fill="#F9F1AF"/>
<circle cx="220.292" cy="47.0763" r="3" fill="#F9F1AF"/>
<circle cx="234.75" cy="47.0763" r="3" fill="#F9F1AF"/>
<circle cx="249.208" cy="47.0763" r="3" fill="#F9F1AF"/>
<circle cx="3.41772" cy="61.6458" r="3" fill="#F9F1AF"/>
<circle cx="17.8761" cy="61.6458" r="3" fill="#F9F1AF"/>
<circle cx="32.3342" cy="61.6458" r="3" fill="#F9F1AF"/>
<circle cx="46.7926" cy="61.6458" r="3" fill="#F9F1AF"/>
<circle cx="61.2506" cy="61.6458" r="3" fill="#F9F1AF"/>
<circle cx="75.7091" cy="61.6458" r="3" fill="#F9F1AF"/>
<circle cx="90.1671" cy="61.6458" r="3" fill="#F9F1AF"/>
<circle cx="104.625" cy="61.6458" r="3" fill="#F9F1AF"/>
<circle cx="119.084" cy="61.6458" r="3" fill="#F9F1AF"/>
<circle cx="133.542" cy="61.6458" r="3" fill="#F9F1AF"/>
<circle cx="148" cy="61.6458" r="3" fill="#F9F1AF"/>
<circle cx="162.459" cy="61.6458" r="3" fill="#F9F1AF"/>
<circle cx="176.917" cy="61.6458" r="3" fill="#F9F1AF"/>
<circle cx="191.375" cy="61.6458" r="3" fill="#F9F1AF"/>
<circle cx="205.833" cy="61.6458" r="3" fill="#F9F1AF"/>
<circle cx="220.292" cy="61.6458" r="3" fill="#F9F1AF"/>
<circle cx="234.75" cy="61.6458" r="3" fill="#F9F1AF"/>
<circle cx="249.208" cy="61.6458" r="3" fill="#F9F1AF"/>
<circle cx="3.41772" cy="76.2155" r="3" fill="#F9F1AF"/>
<circle cx="17.8761" cy="76.2155" r="3" fill="#F9F1AF"/>
<circle cx="32.3342" cy="76.2155" r="3" fill="#F9F1AF"/>
<circle cx="46.7926" cy="76.2155" r="3" fill="#F9F1AF"/>
<circle cx="61.2506" cy="76.2155" r="3" fill="#F9F1AF"/>
<circle cx="75.7091" cy="76.2155" r="3" fill="#F9F1AF"/>
<circle cx="90.1671" cy="76.2155" r="3" fill="#F9F1AF"/>
<circle cx="104.625" cy="76.2155" r="3" fill="#F9F1AF"/>
<circle cx="119.084" cy="76.2155" r="3" fill="#F9F1AF"/>
<circle cx="133.542" cy="76.2155" r="3" fill="#F9F1AF"/>
<circle cx="148" cy="76.2155" r="3" fill="#F9F1AF"/>
<circle cx="162.459" cy="76.2155" r="3" fill="#F9F1AF"/>
<circle cx="176.917" cy="76.2155" r="3" fill="#F9F1AF"/>
<circle cx="191.375" cy="76.2155" r="3" fill="#F9F1AF"/>
<circle cx="205.833" cy="76.2155" r="3" fill="#F9F1AF"/>
<circle cx="220.292" cy="76.2155" r="3" fill="#F9F1AF"/>
<circle cx="234.75" cy="76.2155" r="3" fill="#F9F1AF"/>
<circle cx="249.208" cy="76.2155" r="3" fill="#F9F1AF"/>
<circle cx="3.41772" cy="90.785" r="3" fill="#F9F1AF"/>
<circle cx="17.8761" cy="90.785" r="3" fill="#F9F1AF"/>
<circle cx="32.3342" cy="90.785" r="3" fill="#F9F1AF"/>
<circle cx="46.7926" cy="90.785" r="3" fill="#F9F1AF"/>
<circle cx="61.2506" cy="90.785" r="3" fill="#F9F1AF"/>
<circle cx="75.7091" cy="90.785" r="3" fill="#F9F1AF"/>
<circle cx="90.1671" cy="90.785" r="3" fill="#F9F1AF"/>
<circle cx="104.625" cy="90.785" r="3" fill="#F9F1AF"/>
<circle cx="119.084" cy="90.785" r="3" fill="#F9F1AF"/>
<circle cx="133.542" cy="90.785" r="3" fill="#F9F1AF"/>
<circle cx="148" cy="90.785" r="3" fill="#F9F1AF"/>
<circle cx="162.459" cy="90.785" r="3" fill="#F9F1AF"/>
<circle cx="176.917" cy="90.785" r="3" fill="#F9F1AF"/>
<circle cx="191.375" cy="90.785" r="3" fill="#F9F1AF"/>
<circle cx="205.833" cy="90.785" r="3" fill="#F9F1AF"/>
<circle cx="220.292" cy="90.785" r="3" fill="#F9F1AF"/>
<circle cx="234.75" cy="90.785" r="3" fill="#F9F1AF"/>
<circle cx="249.208" cy="90.785" r="3" fill="#F9F1AF"/>
<circle cx="3.41772" cy="105.355" r="3" fill="#F9F1AF"/>
<circle cx="17.8761" cy="105.355" r="3" fill="#F9F1AF"/>
<circle cx="32.3342" cy="105.355" r="3" fill="#F9F1AF"/>
<circle cx="46.7926" cy="105.355" r="3" fill="#F9F1AF"/>
<circle cx="61.2506" cy="105.355" r="3" fill="#F9F1AF"/>
<circle cx="75.7091" cy="105.355" r="3" fill="#F9F1AF"/>
<circle cx="90.1671" cy="105.355" r="3" fill="#F9F1AF"/>
<circle cx="104.625" cy="105.355" r="3" fill="#F9F1AF"/>
<circle cx="119.084" cy="105.355" r="3" fill="#F9F1AF"/>
<circle cx="133.542" cy="105.355" r="3" fill="#F9F1AF"/>
<circle cx="148" cy="105.355" r="3" fill="#F9F1AF"/>
<circle cx="162.459" cy="105.355" r="3" fill="#F9F1AF"/>
<circle cx="176.917" cy="105.355" r="3" fill="#F9F1AF"/>
<circle cx="191.375" cy="105.355" r="3" fill="#F9F1AF"/>
<circle cx="205.833" cy="105.355" r="3" fill="#F9F1AF"/>
<circle cx="220.292" cy="105.355" r="3" fill="#F9F1AF"/>
<circle cx="234.75" cy="105.355" r="3" fill="#F9F1AF"/>
<circle cx="249.208" cy="105.355" r="3" fill="#F9F1AF"/>
<circle cx="3.41772" cy="119.924" r="3" fill="#F9F1AF"/>
<circle cx="17.8761" cy="119.924" r="3" fill="#F9F1AF"/>
<circle cx="32.3342" cy="119.924" r="3" fill="#F9F1AF"/>
<circle cx="46.7926" cy="119.924" r="3" fill="#F9F1AF"/>
<circle cx="61.2506" cy="119.924" r="3" fill="#F9F1AF"/>
<circle cx="75.7091" cy="119.924" r="3" fill="#F9F1AF"/>
<circle cx="90.1671" cy="119.924" r="3" fill="#F9F1AF"/>
<circle cx="104.625" cy="119.924" r="3" fill="#F9F1AF"/>
<circle cx="119.084" cy="119.924" r="3" fill="#F9F1AF"/>
<circle cx="133.542" cy="119.924" r="3" fill="#F9F1AF"/>
<circle cx="148" cy="119.924" r="3" fill="#F9F1AF"/>
<circle cx="162.459" cy="119.924" r="3" fill="#F9F1AF"/>
<circle cx="176.917" cy="119.924" r="3" fill="#F9F1AF"/>
<circle cx="191.375" cy="119.924" r="3" fill="#F9F1AF"/>
<circle cx="205.833" cy="119.924" r="3" fill="#F9F1AF"/>
<circle cx="220.292" cy="119.924" r="3" fill="#F9F1AF"/>
<circle cx="234.75" cy="119.924" r="3" fill="#F9F1AF"/>
<circle cx="249.208" cy="119.924" r="3" fill="#F9F1AF"/>
<circle cx="3.41772" cy="134.494" r="3" fill="#F9F1AF"/>
<circle cx="17.8761" cy="134.494" r="3" fill="#F9F1AF"/>
<circle cx="32.3342" cy="134.494" r="3" fill="#F9F1AF"/>
<circle cx="46.7926" cy="134.494" r="3" fill="#F9F1AF"/>
<circle cx="61.2506" cy="134.494" r="3" fill="#F9F1AF"/>
<circle cx="75.7091" cy="134.494" r="3" fill="#F9F1AF"/>
<circle cx="90.1671" cy="134.494" r="3" fill="#F9F1AF"/>
<circle cx="104.625" cy="134.494" r="3" fill="#F9F1AF"/>
<circle cx="119.084" cy="134.494" r="3" fill="#F9F1AF"/>
<circle cx="133.542" cy="134.494" r="3" fill="#F9F1AF"/>
<circle cx="148" cy="134.494" r="3" fill="#F9F1AF"/>
<circle cx="162.459" cy="134.494" r="3" fill="#F9F1AF"/>
<circle cx="176.917" cy="134.494" r="3" fill="#F9F1AF"/>
<circle cx="191.375" cy="134.494" r="3" fill="#F9F1AF"/>
<circle cx="205.833" cy="134.494" r="3" fill="#F9F1AF"/>
<circle cx="220.292" cy="134.494" r="3" fill="#F9F1AF"/>
<circle cx="234.75" cy="134.494" r="3" fill="#F9F1AF"/>
<circle cx="249.208" cy="134.494" r="3" fill="#F9F1AF"/>
<circle cx="3.41772" cy="149.064" r="3" fill="#F9F1AF"/>
<circle cx="17.8761" cy="149.064" r="3" fill="#F9F1AF"/>
<circle cx="32.3342" cy="149.064" r="3" fill="#F9F1AF"/>
<circle cx="46.7926" cy="149.064" r="3" fill="#F9F1AF"/>
<circle cx="61.2506" cy="149.064" r="3" fill="#F9F1AF"/>
<circle cx="75.7091" cy="149.064" r="3" fill="#F9F1AF"/>
<circle cx="90.1671" cy="149.064" r="3" fill="#F9F1AF"/>
<circle cx="104.625" cy="149.064" r="3" fill="#F9F1AF"/>
<circle cx="119.084" cy="149.064" r="3" fill="#F9F1AF"/>
<circle cx="133.542" cy="149.064" r="3" fill="#F9F1AF"/>
<circle cx="148" cy="149.064" r="3" fill="#F9F1AF"/>
<circle cx="162.459" cy="149.064" r="3" fill="#F9F1AF"/>
<circle cx="176.917" cy="149.064" r="3" fill="#F9F1AF"/>
<circle cx="191.375" cy="149.064" r="3" fill="#F9F1AF"/>
<circle cx="205.833" cy="149.064" r="3" fill="#F9F1AF"/>
<circle cx="220.292" cy="149.064" r="3" fill="#F9F1AF"/>
<circle cx="234.75" cy="149.064" r="3" fill="#F9F1AF"/>
<circle cx="249.208" cy="149.064" r="3" fill="#F9F1AF"/>
<circle cx="3.41772" cy="163.633" r="3" fill="#F9F1AF"/>
<circle cx="17.8761" cy="163.633" r="3" fill="#F9F1AF"/>
<circle cx="32.3342" cy="163.633" r="3" fill="#F9F1AF"/>
<circle cx="46.7926" cy="163.633" r="3" fill="#F9F1AF"/>
<circle cx="61.2506" cy="163.633" r="3" fill="#F9F1AF"/>
<circle cx="75.7091" cy="163.633" r="3" fill="#F9F1AF"/>
<circle cx="90.1671" cy="163.633" r="3" fill="#F9F1AF"/>
<circle cx="104.625" cy="163.633" r="3" fill="#F9F1AF"/>
<circle cx="119.084" cy="163.633" r="3" fill="#F9F1AF"/>
<circle cx="133.542" cy="163.633" r="3" fill="#F9F1AF"/>
<circle cx="148" cy="163.633" r="3" fill="#F9F1AF"/>
<circle cx="162.459" cy="163.633" r="3" fill="#F9F1AF"/>
<circle cx="176.917" cy="163.633" r="3" fill="#F9F1AF"/>
<circle cx="191.375" cy="163.633" r="3" fill="#F9F1AF"/>
<circle cx="205.833" cy="163.633" r="3" fill="#F9F1AF"/>
<circle cx="220.292" cy="163.633" r="3" fill="#F9F1AF"/>
<circle cx="234.75" cy="163.633" r="3" fill="#F9F1AF"/>
<circle cx="249.208" cy="163.633" r="3" fill="#F9F1AF"/>
</svg>
