<svg xmlns="http://www.w3.org/2000/svg" width="56.661" height="37.827" viewBox="0 0 56.661 37.827"><g id="Group_28594" data-name="Group 28594" opacity=".3"><path id="Path_24405" fill="#616371" d="M35.519,35.7a13.759,13.759,0,0,0-13.76-13.76c-7.6,0-13.116,5.948-13.76,13.52-.983,11.554,7.8,21.229,18.452,24.307A13.748,13.748,0,0,1,19.863,49.3a13.447,13.447,0,0,0,1.9.151A13.759,13.759,0,0,0,35.519,35.7Z" data-name="Path 24405" transform="translate(-7.924 -21.936)"/><path id="Path_24406" fill="#616371" d="M78.648,35.7a13.759,13.759,0,0,0-13.76-13.76c-7.6,0-13.116,5.948-13.76,13.52-.983,11.554,7.8,21.229,18.453,24.307A13.75,13.75,0,0,1,62.991,49.3a13.456,13.456,0,0,0,1.9.151A13.759,13.759,0,0,0,78.648,35.7Z" data-name="Path 24406" transform="translate(-21.987 -21.936)"/></g></svg>