<svg xmlns="http://www.w3.org/2000/svg" width="19" height="19" fill="none" viewBox="0 0 19 19"><path fill="#74E" d="M19.0002 5.42859H11.1966V8.14287H19.0002V5.42859Z"/><path fill="#74E" d="M19 0H0V2.71429H19V0Z"/><path fill="#74E" d="M19 16.2857H0V19H19V16.2857Z"/><path fill="#74E" d="M19.0002 10.8571H11.1966V13.5714H19.0002V10.8571Z"/><path fill="#74E" d="M2.03571 13.9107H6.78571C7.32562 13.9107 7.84341 13.6962 8.22518 13.3144C8.60695 12.9327 8.82143 12.4149 8.82143 11.875V7.12498C8.82143 6.58507 8.60695 6.06728 8.22518 5.68551C7.84341 5.30374 7.32562 5.08926 6.78571 5.08926H2.03571C1.49581 5.08926 0.978017 5.30374 0.596247 5.68551C0.214476 6.06728 0 6.58507 0 7.12498V11.875C0 12.4149 0.214476 12.9327 0.596247 13.3144C0.978017 13.6962 1.49581 13.9107 2.03571 13.9107ZM2.71429 7.80355H6.10714V11.1964H2.71429V7.80355Z"/></svg>