<svg xmlns="http://www.w3.org/2000/svg" width="23" height="23" fill="none" viewBox="0 0 23 23"><path fill="#74E" stroke="#74E" stroke-width=".5" d="M21.6394 0.75H4.33388C3.99752 0.75 3.72335 1.02417 3.72335 1.36053V10.0133C3.72335 10.3496 3.99752 10.6238 4.33388 10.6238H12.3761V18.666C12.3761 19.0024 12.6503 19.2766 12.9866 19.2766H21.6394C21.9757 19.2766 22.2499 19.0024 22.2499 18.666V1.36053C22.2499 1.02417 21.9757 0.75 21.6394 0.75ZM21.0289 9.40275H13.5972V1.97106H21.0289V9.40275ZM4.94441 1.97106H12.3761V9.40275H4.94441V1.97106ZM21.0289 18.0555H13.5972V10.6238H21.0289V18.0555Z"/><path fill="#74E" stroke="#74E" stroke-width=".5" d="M0.75 13.4687V21.1841C0.75 21.5988 1.08457 21.9028 1.46869 21.9028H9.18406C9.59877 21.9028 9.90275 21.5682 9.90275 21.1841V13.4687C9.90275 13.054 9.56818 12.75 9.18406 12.75H1.46869C1.07825 12.75 0.75 13.0782 0.75 13.4687ZM8.75379 20.7538H1.89896V13.899H8.75379V20.7538Z"/></svg>