<svg xmlns="http://www.w3.org/2000/svg" xmlns:xlink="http://www.w3.org/1999/xlink" id="Capa_1" x="0" y="0" version="1.1" viewBox="0 0 512 512" xml:space="preserve" style="enable-background:new 0 0 512 512"><style type="text/css">.st0{fill:url(#SVGID_1_)}.st1{fill:url(#SVGID_2_)}</style><g><g><linearGradient id="SVGID_1_" x1="286" x2="286" y1="2" y2="514" gradientTransform="matrix(1 0 0 -1 0 514)" gradientUnits="userSpaceOnUse"><stop offset="0" style="stop-color:#a93aff"/><stop offset="1" style="stop-color:#ff81ff"/></linearGradient><path d="M411,512H106V0h305c30.4,0,55,24.6,55,55v402C466,487.4,441.4,512,411,512z" class="st0"/></g><linearGradient id="SVGID_2_" x1="212" x2="212" y1="2" y2="514" gradientTransform="matrix(1 0 0 -1 0 514)" gradientUnits="userSpaceOnUse"><stop offset="0" style="stop-color:#ffbef9"/><stop offset="1" style="stop-color:#fff1ff"/></linearGradient><path d="M106,512H61c-8.3,0-15-6.7-15-15V15c0-8.3,6.7-15,15-15h45V512z M362.4,201.5H174.6c-8.6,0-15.6,6.7-15.6,15 s7,15,15.6,15h187.7c8.6,0,15.6-6.7,15.6-15S371,201.5,362.4,201.5z M362.4,261.5H174.6c-8.6,0-15.6,6.7-15.6,15s7,15,15.6,15 h187.7c8.6,0,15.6-6.7,15.6-15S371,261.5,362.4,261.5z M323.4,326.5H171.6c-7,0-12.6,6.7-12.6,15s5.7,15,12.6,15h151.7 c7,0,12.6-6.7,12.6-15S330.3,326.5,323.4,326.5z" class="st1"/></g></svg>