<svg id="Layer_1" data-name="Layer 1" xmlns="http://www.w3.org/2000/svg" viewBox="0 0 1080 1080"><defs><style>.cls-1{fill:#ef9673;opacity:0.48;}</style></defs><title>ICONS</title><path class="cls-1" d="M804.28,403.19c52.46,24,62.23,178.31-5.28,285.84C716.11,821.08,505.62,900.17,379.05,811.45,313.22,765.3,276.59,678.3,279.68,603.86c2.68-64.65,33.3-71.15,55.22-164.73,29.16-124.48-9.55-179,28.82-209.1,41.62-32.65,136.45-7.08,189.73,46.45C619.38,342.7,594.1,424,646.07,445.2,702.72,468.36,759,382.52,804.28,403.19Z"/><path class="cls-1" d="M579.24,873.68c-50.74,36.25-220.43-20.23-303.06-125.25C174.71,619.47,191,400.11,346.44,325.7,427.3,287,537.85,291.33,616,325.46c67.84,29.64,60.12,59.44,149.66,118.29C884.72,522,961.56,510.83,975.36,557.43,990.33,608,917.57,681,834.83,705.49c-102.37,30.32-177.14-26.3-224.73,10.67C558.21,756.45,623,842.41,579.24,873.68Z"/><path d="M537.75,446.16a8.54,8.54,0,0,0,8.33-8.74l-1.64-68.24a8.53,8.53,0,1,0-17.06.41L529,437.83a8.52,8.52,0,0,0,8.73,8.33Z"/><path d="M775,372.19l-17.06.41-.82-34.13a17.08,17.08,0,0,0-17.47-16.65l-121.76,2.92a102.06,102.06,0,0,0-166,4l-121.76,2.92a17.09,17.09,0,0,0-16.66,17.47l.82,34.12-17.06.41a17.08,17.08,0,0,0-16.65,17.47L289,750.88a17.09,17.09,0,0,0,17.47,16.65l185.12-4.44a59.4,59.4,0,0,0,107.49-2.58l185.12-4.43a17.08,17.08,0,0,0,16.65-17.47l-8.38-349.77A17.08,17.08,0,0,0,775,372.19ZM628.24,341.56,740,338.88l6.75,281.52-153.56,3.68a59.51,59.51,0,0,0-42.22,19l-3.72-154.93a102.11,102.11,0,0,0,81-146.62ZM594.66,683.8l153.56-3.68.61,25.59-196.21,4.7L552,684.82a42.72,42.72,0,0,1,41.63-43.68l153.56-3.68.61,25.6-153.56,3.68a8.53,8.53,0,0,0,.41,17.06ZM534.27,301.14A85.33,85.33,0,1,1,451,388.49,85.33,85.33,0,0,1,534.27,301.14ZM330.56,348.7,442.36,346a102.11,102.11,0,0,0,87.87,142.57L534,643.52a59.51,59.51,0,0,0-43.09-17L337.3,630.22Zm8.18,341.23,153.55-3.68a8.53,8.53,0,1,0-.41-17.06l-153.55,3.68-.62-25.59,153.56-3.68A42.72,42.72,0,0,1,535,685.23l.61,25.59-196.21,4.71Zm445,49.09-190.66,4.57a2.44,2.44,0,0,0-.26.06,7.58,7.58,0,0,0-1.77.4,4.5,4.5,0,0,0-2.67,1.27,4.7,4.7,0,0,0-2.13,2.25,8.16,8.16,0,0,0-1,1.7c0,.09-.1.15-.13.24a42.59,42.59,0,0,1-80.29,1.92c0-.09-.11-.14-.15-.23a8.65,8.65,0,0,0-1-1.61,4.6,4.6,0,0,0-2.16-2.11,7.91,7.91,0,0,0-1.37-.87,8,8,0,0,0-1.37-.33,8.16,8.16,0,0,0-1.89-.34c-.09,0-.17-.05-.26,0L306,750.47,297.66,400.7l17.06-.41,7.57,315.64a17.09,17.09,0,0,0,17.47,16.66l409.48-9.82a17.08,17.08,0,0,0,16.65-17.47l-7.56-315.64,17.06-.41L783.77,739Z"/><path d="M624.08,486.77a8.54,8.54,0,0,0,8.74,8.33l85.31-2.05a8.53,8.53,0,0,0-.41-17.06L632.41,478a8.54,8.54,0,0,0-8.33,8.73Z"/><path d="M718.74,518.64l-119.43,2.87a8.53,8.53,0,1,0,.41,17.06l119.43-2.87a8.53,8.53,0,0,0-.41-17.06Z"/><path d="M719.76,561.3l-119.43,2.86a8.53,8.53,0,1,0,.41,17.06l119.43-2.86a8.53,8.53,0,1,0-.41-17.06Z"/><path d="M359.83,501.64l85.31-2.05a8.53,8.53,0,0,0-.41-17.06l-85.31,2.05a8.53,8.53,0,1,0,.41,17.06Z"/><path d="M360.85,544.29l119.43-2.86a8.53,8.53,0,0,0-.4-17.06l-119.44,2.86a8.53,8.53,0,0,0,.41,17.06Z"/><path d="M480.9,567l-119.44,2.87a8.53,8.53,0,0,0,.41,17.06l119.44-2.86A8.54,8.54,0,0,0,480.9,567Z"/><path d="M535.3,343.79a8.52,8.52,0,0,0,8.32-8.74l-.2-8.53a8.53,8.53,0,0,0-17.06.41l.2,8.53a8.54,8.54,0,0,0,8.74,8.33Z"/></svg>