<svg xmlns="http://www.w3.org/2000/svg" id="Layer_1" data-name="Layer 1" viewBox="0 0 1080 1080"><defs><style>.cls-1{fill:#e897ae;opacity:.48}</style></defs><title>Icon</title><path d="M849.29,516.23c44.38,47.65-6.12,218.75-117.48,307.19C595.07,932,348.31,930.48,253.37,782.05,204,704.84,200.55,595.52,232.89,516.23c28.1-68.87,62-63.23,121.2-155.44,78.7-122.65,60.4-197.7,111.52-214.39,55.47-18.11,142.64,48.84,176.27,128.84,41.6,99-16.16,176.45,28.78,221C719.65,544.71,811,475.12,849.29,516.23Z" class="cls-1"/><path d="M360.93,814.92c-62.05,6.12-181-127.43-200.26-259.66C137,392.88,260.46,210.83,432.33,223.83,521.72,230.6,615.39,289.47,666.08,358c44,59.52,22.47,81.5,70.76,177.16C801.06,662.4,873.25,691,862,738.26c-12.23,51.3-111.7,78.3-195.64,58.29C562.49,771.8,525.9,685.44,466.22,693.75,401.15,702.82,414.47,809.63,360.93,814.92Z" class="cls-1"/><g id="esyQUs.tif"><path d="M328.62,796.18c-6.51-2.48-13.07-4.69-18.6-9.35-10.21-8.59-15.63-19.4-15.67-32.65q-.19-72.49-.1-145,0-154.5,0-309c0-2.16-.09-4.34.12-6.49a10.64,10.64,0,0,1,9.76-9.74c1.81-.18,3.66-.12,5.49-.12h377.5c8.93.1,13.41,4.1,13.53,13,.22,15.66,0,31.33.06,47,0,3.33-1.23,4.88-4.73,4.73-4.32-.18-8.67-.21-13,0-3.83.21-4.84-1.53-4.79-5.05.13-10,0-20,0-30,0-7.19,0-7.22-7.1-7.22q-73.26,0-146.5,0-100,0-200,.06c-7.83,0-7.84,0-7.84,8l-.06,433.5c0,2.49,0,5,.18,7.49A20,20,0,0,0,335.76,774c11.19.48,19.68-6,21.72-16.51a62.87,62.87,0,0,0,.8-11.94c0-9.87,3.76-13.67,13.53-13.68q40.24,0,80.5,0h219c7,0,7,0,7-7.21V504.12c0-7.21,0-7.21,7.1-7.21h8.5c6.64,0,6.84.19,6.85,6.62q.06,32.25.06,64.5c0,52.5,0,105-.15,157.5,0,5.23,1.77,6.44,6.66,6.35,15-.26,30-.12,45,0,6.83,0,11.09,3.16,11.86,9.71,2.18,18.43-1.65,34.84-17.37,46.71-5.14,3.89-11.14,5.9-17.16,7.89ZM561,754.29H388.54c-7.51,0-7.47,0-8.85,7.18a54,54,0,0,1-1.68,6.26c-2.05,6.34-2.08,6.34,4.65,6.34H651.13c23.16,0,46.33-.05,69.49,0,8.66,0,15.1-3.59,19.07-11.29,3.44-6.65,2.27-8.49-5.19-8.49Z"/><path d="M785.75,367.13a10.74,10.74,0,0,1-2.15,5.95,75.05,75.05,0,0,1-5.28,6Q694.59,462.84,610.85,546.6a46.35,46.35,0,0,1-12.49,9c-17.49,8.6-34.85,17.46-52.34,26-8,3.92-15.9,0-17.09-8.11-.42-2.8.49-5.29,1.68-7.68q13.82-27.74,27.7-55.42a29.28,29.28,0,0,1,5.74-7.51q85.37-85.32,170.7-170.68c7.89-7.88,14.08-7.66,21.7.3,8.06,8.43,16.31,16.67,24.52,24.94C783.65,360.16,785.58,363.14,785.75,367.13ZM597.2,527.5c3.25-1.49,4.22-3.2,5.48-4.45q73.7-73.65,147.37-147.36c8.76-8.76,8.76-8.76-.19-17.68-4.63-4.62-4.63-4.62-9.12-.13l-147,147c-8.68,8.68-8.64,8.64.14,17.57C595.26,523.88,596.11,525.81,597.2,527.5Zm-31.47,18.15.6.84c2.95-1.46,5.81-3.13,8.85-4.35,3.7-1.49,4.07-2.89,1.11-5.88s-4.7-3.69-6.42.91A89.68,89.68,0,0,1,565.73,545.65Z"/><path d="M497.64,647.44H365.16c-6.86,0-6.86,0-6.91-7,0-3,0-6,0-9,0-6.55,0-6.59,6.78-6.59l254.47,0c4.33,0,8.66,0,13,0,2.94,0,4.31,1.29,4.29,4.19,0,4.5-.15,9,0,13.5.11,3.69-1.55,4.95-5.13,4.91-10.83-.13-21.67,0-32.5,0Z"/><path d="M476,700.53H366c-7.74,0-7.74,0-7.75-8,0-3,.2-6,0-9-.34-4.18,1.45-5.55,5.49-5.52,14.33.12,28.65,0,43,0H585.57c8.31,0,8.31,0,8.32,8.19,0,14.33,0,14.33-14.51,14.33Z"/><path d="M347.37,369.28c0-6.32-.08-12.65,0-19,.14-8.78,4.54-13.27,13.27-13.35,12.48-.12,25-.08,37.44,0,9.95,0,14.41,4.27,14.58,14.2.18,11.15.06,22.3.05,33.45a48.23,48.23,0,0,1-.23,6.48c-1,6.8-4.15,10-10.93,11a36.8,36.8,0,0,1-6.47.24c-3-.09-4.23,1.13-4.15,4.15.14,5.16.11,10.32,0,15.48-.09,6-2.74,9.89-7.73,11.49-5.2,1.67-9.61,0-13.21-5.31-6.63-9.78-13.16-19.63-19.72-29.46a17.12,17.12,0,0,1-3-9.88C347.41,382.26,347.37,375.77,347.37,369.28Zm22.52,0c.16,12.27-1.54,10.51,10.55,10.54,11.19,0,9.83,1.46,9.8-9.73,0-12.14,1.74-10.56-10.48-10.59C368.66,359.44,370,358.18,369.89,369.25Z"/><path d="M487,370q0,9,0,18c0,9.84-4,14-13.72,14.37-7.35.26-7.35.26-7.36,7.43,0,4.16.11,8.32-.07,12.47-.26,5.95-3.26,9.94-8.17,11.25-5.18,1.38-9.47-.22-12.86-5.21-6.74-9.91-13.32-19.92-20-29.86a15.36,15.36,0,0,1-2.57-8.94c.07-13.31,0-26.62.09-39.93.05-7.93,4.34-12.38,12.36-12.5q20-.3,39.93-.05c8,.1,12.24,4.62,12.35,12.54C487,356.3,487,363.12,487,370Zm-22.45,0c-.08-12,1-10.42-9.71-10.42-11.15,0-10-1.36-10,10.16s-1.49,10.14,9.92,10.13C465.5,379.79,464.44,381.22,464.52,369.93Z"/><path d="M454.38,487.44q-44.7,0-89.4,0c-6.67,0-6.68,0-6.7-6.63,0-3.83.12-7.66,0-11.48-.12-3.25,1.33-4.58,4.46-4.39,1,.06,2,0,3,0h177.8c7.44,0,7.44,0,7.46,7.39,0,3.16-.23,6.34,0,9.48.39,4.43-1.45,5.75-5.75,5.72-22.64-.16-45.29-.07-67.93-.07Z"/><path d="M438.31,540.56c-24.63,0-49.27-.1-73.9.1-4.75,0-6.68-1.32-6.23-6.2a78.41,78.41,0,0,0,.05-11.47c-.21-3.79,1.53-5,5-4.94,4.49.11,9,0,13.48,0l134.82.06c7.39,0,7.39,0,7.41,7.5,0,15,0,15-14.76,15H438.31Z"/><path d="M438.12,594.29h-72c-7.85,0-7.85,0-7.86-8.07,0-3,.21-6,0-9-.34-4.12,1.27-5.49,5.41-5.46,20,.15,40,0,60,0,29.66,0,59.33.12,89-.11,5.12,0,6.93,1.54,6.41,6.55a52.92,52.92,0,0,0,0,10c.41,4.54-1.29,6.25-5.91,6.14-9.16-.23-18.33,0-27.5,0h-47.5Z"/><path d="M577.63,359.44c-17.83,0-35.65-.12-53.47.08-4.61.05-6.33-1.49-5.94-6a58.34,58.34,0,0,0,0-10.49c-.48-5,1.72-6.18,6.36-6.14,21.48.19,43,.08,64.46.08,14,0,28,.13,42-.07,4.4-.07,6,1.55,5.78,5.83a76.51,76.51,0,0,0,.06,10.49c.35,4.69-1.36,6.47-6.25,6.4-17.65-.23-35.31-.09-53-.09Z"/><path d="M577.53,412.53c-17.81,0-35.63-.14-53.45.09-4.68.07-6.2-1.55-5.87-6,.3-4.14.15-8.33.06-12.49-.06-2.75,1.19-4,3.86-4,.83,0,1.67,0,2.5,0,35.3,0,70.6.07,105.9-.08,4.84,0,6.62,1.66,6.26,6.39a89.54,89.54,0,0,0,0,11c.17,3.84-1.36,5.25-5.28,5.22C613.5,412.44,595.52,412.53,577.53,412.53Z"/><path d="M625.11,700.53c-12.46-.19-10.81,1.61-10.79-10.85,0-12.82-2.07-11.56,11.69-11.59,11.77,0,10.73-1.06,10.71,10.71C636.68,702.56,637.94,700.3,625.11,700.53Z"/></g></svg>