<svg id="Layer_1" data-name="Layer 1" xmlns="http://www.w3.org/2000/svg" viewBox="0 0 1080 1080"><defs><style>.cls-1,.cls-2{fill:#ef725e;}.cls-1{opacity:0.48;}.cls-2{opacity:0.4;}</style></defs><title>Icon</title><path class="cls-1" d="M696.54,892.64c-38.1,42-226.69,14.88-345.21-71.52C205.78,715,146.48,505.41,275.85,411.19c67.29-49,179-62,268.59-41.78,77.82,17.53,80.39,46.86,189.91,88.61C880,513.56,952.77,491.14,982.56,533c32.33,45.42-15.07,125.56-89.12,161.45-91.61,44.4-185.63,2.48-220.36,44.72C635.23,785.21,729.41,856.37,696.54,892.64Z"/><path class="cls-2" d="M259.08,578.7c-37.94-47.45,33.16-200.45,154.14-272.47,148.57-88.44,392.19-66.58,467.61,77.65,39.23,75,29.07,175.73-12.71,245.89-36.3,60.94-69.13,53-139,132.76-93,106.15-84.18,176.61-136.76,187.71-57.05,12-134.88-56.69-158.2-133-28.84-94.37,37.84-160.76-1-205.37C390.7,563.28,291.81,619.64,259.08,578.7Z"/><g id="ZwTnTc.tif"><path d="M304.89,370.38c3.88-8.66,11.18-10.74,19.88-10.73q80.6.08,161.19,0,183.63,0,367.25.08a81.14,81.14,0,0,1,8.26.2c10.51,1.1,15.76,6.73,16.35,17.34,0,.2,0,.4,0,.59.61,14.28.61,14.28,15.3,14.7,10.74.31,16.81,6.32,16.81,17q0,198.09,0,396.19c0,11.83-6,17.28-18.84,17.28q-130.79,0-261.57,0H506.73c-9.39,0-14.27-3.36-14.09-9.64s5.22-9.67,14.35-9.68l375.52-.08c8.86,0,8.88,0,8.88-9.16q0-187.47,0-374.93c0-7.59-.25-7.54-7.39-7.77-5.13-.17-6.3,2.08-6.27,6.71.18,24.41.12,48.81.14,73.22,0,2.75.1,5.51-1,8.15-1.76,4.35-5.08,6.61-9.63,6.35-4.37-.25-7.28-3-8.29-7.22a31,31,0,0,1-.5-7c0-35.23-.13-70.46.09-105.69,0-5.64-1.59-7.37-7.31-7.37q-242.09.24-484.17.15c-12.4,0-24.8.22-37.19-.14-5.43-.16-7,1.55-7,7q.25,114.26.12,228.5,0,74.7,0,149.39c0,7.72,0,7.74,7.82,7.74H850.43c8,0,8.05,0,8.05-8.15q0-109.23,0-218.46c0-2.17-.09-4.34.08-6.49.46-5.75,4.1-9.56,9.18-9.77,4.88-.21,9,3.55,9.84,9.16a41.33,41.33,0,0,1,.23,5.89q0,113.07,0,226.14c0,4.37-.12,8.71-2.39,12.6-2.89,5-7.2,7.64-13.07,7.63-11.22,0-22.44,0-33.66,0H715.42c-35.8,0-71.61-.4-107.4.12-35.41.52-70.81-.48-106.22-.18-35.8.3-71.6.12-107.4,0-11.4,0-22.79,1.68-34.19.25-3.15-.4-4.66,1.1-4.13,4,.59,3.22-2.45,8,3.45,9.15a24.62,24.62,0,0,0,4.71.13h90.93c2.95,0,5.92-.15,8.74,1,4.36,1.76,6.55,5.14,6.22,9.69-.31,4.35-3,7.22-7.27,8.28A24.3,24.3,0,0,1,457,823q-51.37,0-102.74,0c-11.17,0-17.11-5.87-17.62-17,0-.59,0-1.18,0-1.77-.2-14.07-.2-14.33-13.94-14-8.17.16-14.12-2.66-17.79-10Z"/><path d="M674.94,520.27c0,13.77.13,27.55-.08,41.33-.07,4.42,1.53,5.89,5.85,5.76,8.26-.25,16.53-.21,24.79-.08,3.6.05,5.19-1,5.57-5,1-10.85,5.63-15,16.47-15q37.79-.11,75.58.07c11,.05,15.9,5.13,15.92,15.9,0,9.45,0,18.9-.06,28.34s-4.81,14-14.24,14.22c-26.15.67-52.31.24-78.47,0-9.61-.09-14.3-4.07-15.08-13.59-.35-4.37-2-5.8-6.16-5.69-8.26.22-16.53.2-24.79.1-3.69,0-5.32,1.24-5.3,5.14q.12,41.93,0,83.85c0,4.51,1.76,6.41,6.33,6.3,7.87-.18,15.75-.23,23.61,0,4.57.15,6.59-1.41,6.19-6.1-.32-3.74-.12-7.52,1.79-10.91a12.55,12.55,0,0,1,11.58-6.85c27.16,0,54.32-.06,81.48.08,8.28,0,13,5.06,13.11,13.46q.16,15.35,0,30.7c-.11,8.7-5.15,14.1-14,14.17q-39.86.3-79.71,0c-7.38,0-11.46-3.34-13.57-10.75-1-3.55-2.85-4.63-6.31-4.56-8.46.18-16.93.16-25.39.08-14.56-.14-23.5-9.09-23.66-23.59-.05-4.72-.21-9.46,0-14.17.22-4.21-1.11-6.08-5.65-6-9,.26-18.11.23-27.16,0-4.24-.1-5.93,1.64-6.42,5.74-1.26,10.31-5.47,14.2-15.77,14.25q-38.08.18-76.16,0c-10,0-15.28-4.63-15.8-14.46a272.1,272.1,0,0,1,.13-30.09c.57-10,5.25-13.82,15.31-13.88,7.87-.06,15.75-.17,23.62,0,3.73.07,5.38-1.2,5.3-5.1-.15-7.47-.09-14.95,0-22.43.06-3.46-1.3-5-4.85-5q-36.9.12-73.8.08c-3.23,0-4.37,1.4-4.64,4.61-.9,10.5-4.55,14-15.16,15-7.68.75-15.33-.1-23-.5-4.26-.23-6,1.32-6,5.73q.24,22.73,0,45.46c-.06,4.74,1.92,6.16,6.38,6,7.67-.23,15.35-.19,23,0,9.51.22,14.6,5.29,14.74,14.69q.23,14.76,0,29.52c-.14,9.08-5.3,14.2-14.47,14.23q-39.56.12-79.12,0c-8.77,0-14-5-14.29-13.85q-.47-15.33,0-30.7c.26-8.58,5.67-13.63,14.46-13.87,8.07-.22,16.15-.26,24.21,0,4.16.1,6-1,6-5.6-.21-15.35-.15-30.71,0-46.06,0-4.05-1.31-5.64-5.45-5.53-8.26.21-16.53.14-24.8,0-9.06-.13-14.29-5.13-14.51-14.24-.23-9.64-.13-19.29,0-28.93s5.21-14.88,15-15.22c8.06-.27,16.14-.26,24.21-.1,4.11.08,5.51-1.55,5.46-5.59-.15-13.19-.2-26.38.08-39.56.1-4.33-1.5-6.07-5.5-7.46-31.43-10.88-42.58-47.39-22.66-73.64a47.67,47.67,0,0,1,51.87-16.22c19.4,6.27,32.24,23.65,32.83,44.46.54,19.33-11.68,38-30.07,44.44-6.08,2.12-7.69,5.12-7.48,11.08.41,12,.27,24,.05,36-.08,4.81,1.57,6.76,6.5,6.57,7.27-.28,14.56-.15,21.84,0,10.37.16,15.19,4.59,15.75,14.94.21,4,1.78,5,5.42,5,24-.09,48-.14,72,.06,4.82,0,6.14-1.86,6-6.3q-.39-10,0-20.07c.18-4.52-1.28-6.42-6-6.24-7.86.31-15.75.21-23.62.09-8.77-.13-13.77-4.31-14.55-13a187.82,187.82,0,0,1,0-32.43c.74-8.81,5.6-13.06,14.38-13.09q39.57-.15,79.12,0c9,0,13.85,5.05,14,14q.18,15.35,0,30.7c-.11,8.48-5.08,13.53-13.63,13.75q-12.39.32-24.8,0c-4.09-.1-5.55,1.47-5.53,5.53q.17,36.6,0,73.21c0,4.47,1.71,5.8,6,5.68,8.07-.23,16.14-.14,24.21,0,8.92.11,13.52,4.38,13.75,13.31.11,4.3,1.46,6,5.84,5.88,9.25-.2,18.5-.15,27.75.07,4.38.11,5.8-1.6,5.79-5.91-.12-37.37.43-74.76-.32-112.12-.32-15.56.52-31,.39-46.59-.09-11.8,9.13-20.77,21-21.08q13.57-.35,27.16,0c3.93.09,5.94-.95,7-5.09,1.92-7.35,6.15-10.29,13.82-10.31q39.56-.09,79.12.05c9.35,0,14.3,5,14.39,14.15q.13,15.06,0,30.11c-.13,8.7-5.17,14.06-14,14.12q-39.84.3-79.71,0c-9-.07-13.77-5.57-14.21-15.41-.39-8.43-.38-8.42-8.66-8.38-7.08.05-14.17.2-21.25,0-4.57-.1-6.27,1.79-6.21,6.34.18,14,.06,28,.06,41.93ZM388.78,449.82c-.06,15.92,11.93,28.22,27.64,28.36a28.45,28.45,0,0,0,28.6-27.8c.23-15.56-12.92-28.9-28.35-28.75C400.74,421.79,388.84,433.82,388.78,449.82ZM563.5,637.7c-7.06,0-14.14-.11-21.2,0-16,.3-13.41-2.62-13.9,14.16-.15,4.79,1.36,6.57,6.32,6.5,16.49-.24,33,0,49.48-.12,16.88-.19,13.91,2.81,14.44-14.75.15-4.93-1.88-6-6.27-5.88C582.75,637.86,573.13,637.7,563.5,637.7Zm-147-71c-6.87,0-13.74-.13-20.61,0-16.18.36-13.44-2.56-14.09,14.09-.21,5.38,1.9,6.63,6.87,6.55,16.09-.26,32.19.06,48.28-.14,16.3-.21,14.06,3.2,14.36-14.85.08-4.42-1.73-5.83-6-5.74C435.74,566.85,426.12,566.71,416.5,566.71Zm348.28,20.57v0c7.06,0,14.12.09,21.19,0,15.41-.23,13.45,2.55,13.81-13.72.11-5-1.53-7-6.74-6.88-16.08.25-32.18,0-48.27.13-16.8.19-14-2.89-14.5,14.68-.12,4.8,1.8,6.05,6.25,5.93C745.93,587.11,755.36,587.28,764.78,587.28Zm0,110v0c9.64,0,19.28,0,28.92,0,1.9,0,4.64.63,5.28-1.54a27.27,27.27,0,0,0-.05-16.22c-1.21-3.54-5.86-2.57-9-2.62-15-.21-29.9-.28-44.85-.08-17.14.24-14.33-3.26-14.71,15.06-.09,4.09,1.46,5.59,5.52,5.52C745.46,697.18,755.1,697.3,764.74,697.3ZM563.67,515.44v.08c7.27,0,14.53.07,21.8,0,15.14-.16,12.63,1.91,13.2-13.16.22-5.79-2.19-6.93-7.28-6.86-16.5.22-33,0-49.5.11-15.47.11-13.11-2.17-13.48,14-.1,4.35,1.45,5.94,5.79,5.85C544,515.3,553.85,515.44,563.67,515.44ZM765,456.53c-7.07,0-14.13-.06-21.2,0-15.36.14-13.11-1.86-13.57,13.47-.16,5.38,2,6.65,6.92,6.58,16.48-.25,33-.06,49.46-.18,14.3-.11,12.9,2.18,13.13-13.32.07-4.75-1.57-6.75-6.48-6.62C783.87,456.7,774.44,456.53,765,456.53ZM417,682.33c-7.27,0-14.53-.07-21.79,0-15,.18-13-2.16-13.36,13.64-.11,5,1.92,6.43,6.62,6.38,16.48-.17,33,0,49.46-.08,14.7-.06,13.2,1.71,13.43-13.77.07-4.49-1.42-6.37-6.1-6.25C435.8,682.51,426.38,682.34,417,682.33Z"/><path d="M614.77,326.28c33.85,0,67.71-.14,101.56.13,6,0,7.76-1.78,7.68-7.71-.21-15.51,0-15.51-15.7-15.52-6.69,0-13.39.14-20.07-.08-7-.23-11.65-4.64-11.37-10.23s4.67-9,11.77-9c36-.05,72-.14,108,0,17.52.08,30.66,13.58,30.58,30.82-.08,17.07-13,29.93-30.45,30.07-18.89.16-37.79.06-56.68.06H629.19q-54.88,0-109.76,0c-4.32,0-8.64.31-13,.53-7.94.41-15.59-.33-23-3.68-11.65-5.25-23.53-10-35.35-14.89-5.72-2.35-9.92-5.93-9.91-12.54,0-6.39,4.15-9.77,9.65-12.05,13.09-5.41,26.13-10.94,39.19-16.43a24.72,24.72,0,0,1,9.76-2q72.91,0,145.83,0c4.62,0,8.62,1.05,10.94,5.48,1.86,3.56,1.08,6.92-1.25,9.93-2.67,3.46-6.58,4-10.63,4q-21.84,0-43.69-.06c-28.54,0-57.08.15-85.61-.13-6-.06-7.78,1.75-7.65,7.71.32,15.46.06,15.47,15.59,15.47h94.47Zm157,0c7.87,0,15.74.17,23.6-.05,8.05-.22,12.6-4.68,12.57-11.8s-4.51-11.13-12.9-11.19c-11.6-.08-23.2-.18-34.8.07-20.31.44-16.5-4.16-17,18.22-.08,3.59,1.45,4.86,4.93,4.81C756.07,326.18,763.94,326.27,771.8,326.26ZM468.1,314.47c5.66,2.41,9.93,4.27,14.23,6.06,1.5.62,2.93.39,3-1.48.2-3.49,1.58-7.69-.66-10.27-1.91-2.19-4.88,1.1-7.39,1.84S472.28,312.69,468.1,314.47Z"/><path d="M575.39,703q26.25,0,52.49,0c5,0,8.27,2.28,9.67,7,1.22,4.09-.52,7.29-3.66,9.82-1.95,1.57-4.32,1.7-6.72,1.7q-51.9,0-103.8,0c-6.44,0-10.71-3.91-10.67-9.29s4.29-9.15,10.79-9.18C540.79,703,558.09,703,575.39,703Z"/><path d="M575.45,441.65c-16.93,0-33.85,0-50.77,0-7.58,0-11.95-3.38-12-9.13s4.39-9.42,11.76-9.43q51.06,0,102.12,0c7.08,0,11.35,3.5,11.44,9.11s-4.25,9.4-11.16,9.43C609.68,441.7,592.56,441.65,575.45,441.65Z"/><path d="M508.41,432.42a9.23,9.23,0,1,1-9.23-9.25A8.89,8.89,0,0,1,508.41,432.42Z"/><path d="M499.16,703.06a9.21,9.21,0,1,1-9.21,9.36A8.92,8.92,0,0,1,499.16,703.06Z"/></g></svg>