<svg id="Layer_1" data-name="Layer 1" xmlns="http://www.w3.org/2000/svg" viewBox="0 0 1080 1080"><defs><style>.cls-1,.cls-2{fill:#ede03a;}.cls-1{opacity:0.48;}.cls-2{opacity:0.43;}</style></defs><title>Icon</title><path class="cls-1" d="M819,331.24c63.27,15.36,115.27,186,71,321.14-54.4,165.93-261.27,300.45-422.24,228.77C384.05,843.86,321,754.48,304.39,670.47c-14.45-73,17-86.93,15.64-196.48-1.79-145.72-58.37-198.31-24.88-240.38,36.35-45.64,146-37.72,218.08,10.56,89.2,59.74,83.62,156.23,145.63,168.65C726.47,426.37,764.45,318,819,331.24Z"/><path class="cls-2" d="M575.68,849.39c-48.45,39.27-221.25-6.79-310.12-106.59C156.44,620.25,159.32,400.31,310,316.58,388.34,273,499,270.63,579,300c69.51,25.46,63.62,55.68,156.58,109,123.65,70.89,199.66,55,216.27,100.71,18,49.55-50.17,126.84-131.27,156.33-100.33,36.49-178.4-15.48-223.66,24.31C547.56,733.66,617.46,815.52,575.68,849.39Z"/><path d="M474.31,691.08H341.63a13.14,13.14,0,1,0,0,26.27H474.31a13.14,13.14,0,1,0,0-26.27Z"/><path d="M672.69,691.08H540a13.14,13.14,0,1,0,0,26.27H672.69a13.14,13.14,0,1,0,0-26.27Z"/><path d="M672.69,362.65H341.63a13.14,13.14,0,1,0,0,26.27H672.69a13.14,13.14,0,1,0,0-26.27Z"/><path d="M672.69,428.33H540a13.14,13.14,0,1,0,0,26.28H672.69a13.14,13.14,0,0,0,0-26.28Z"/><path d="M672.69,494H540a13.14,13.14,0,1,0,0,26.27H672.69a13.14,13.14,0,1,0,0-26.27Z"/><path d="M672.69,559.71H540A13.14,13.14,0,1,0,540,586H672.69a13.14,13.14,0,1,0,0-26.27Z"/><path d="M672.69,625.39H540a13.14,13.14,0,0,0,0,26.28H672.69a13.14,13.14,0,0,0,0-26.28Z"/><path d="M474.31,625.39H341.63a13.14,13.14,0,1,0,0,26.28H474.31a13.14,13.14,0,1,0,0-26.28Z"/><path d="M474.31,428.33H341.63a13.14,13.14,0,0,0-13.14,13.14V574.16a13.13,13.13,0,0,0,13.14,13.13H474.31a13.13,13.13,0,0,0,13.14-13.13V441.47A13.14,13.14,0,0,0,474.31,428.33ZM461.18,561H354.76V454.61H461.18Z"/><path d="M804.06,349.51H764.65V310.1a26.31,26.31,0,0,0-26.28-26.28H275.94a26.31,26.31,0,0,0-26.28,26.28V730.49a65.77,65.77,0,0,0,65.69,65.69h449.3a65.77,65.77,0,0,0,65.69-65.69V375.78A26.3,26.3,0,0,0,804.06,349.51Zm0,381a39.46,39.46,0,0,1-39.41,39.41H315.35a39.46,39.46,0,0,1-39.41-39.41V310.1H738.37V710.79a32.88,32.88,0,0,0,32.85,32.84,13.14,13.14,0,0,0,0-26.28,6.57,6.57,0,0,1-6.57-6.56v-335h39.41Z"/></svg>