<svg xmlns="http://www.w3.org/2000/svg" width="32.707" height="32.707" viewBox="0 0 32.707 32.707"><path id="linkedin" fill="#884eff" d="M16.353,0A16.353,16.353,0,1,0,32.707,16.353,16.355,16.355,0,0,0,16.353,0ZM11.6,24.722H7.618V12.739H11.6ZM9.61,11.1H9.584a2.076,2.076,0,1,1,.052-4.14A2.077,2.077,0,1,1,9.61,11.1ZM25.962,24.722H21.98v-6.41c0-1.611-.577-2.71-2.018-2.71a2.18,2.18,0,0,0-2.043,1.457,2.727,2.727,0,0,0-.131.972v6.691H13.805s.052-10.858,0-11.982h3.983v1.7a3.954,3.954,0,0,1,3.589-1.978c2.62,0,4.585,1.713,4.585,5.393Zm0,0"/></svg>