<svg xmlns="http://www.w3.org/2000/svg" width="16.133" height="22" viewBox="0 0 16.133 22">
  <g id="Location" transform="translate(-5 -1)">
    <path id="Path_461" data-name="Path 461" d="M13.067,23a.733.733,0,0,1-.572-.271C12.187,22.34,5,13.327,5,9.067a8.067,8.067,0,1,1,16.133,0c0,4.261-7.187,13.273-7.495,13.662A.733.733,0,0,1,13.067,23Zm0-20.533a6.6,6.6,0,0,0-6.6,6.6c0,2.845,4.334,9.071,6.6,12.012,2.266-2.933,6.6-9.167,6.6-12.012a6.6,6.6,0,0,0-6.6-6.6Z" transform="translate(0 0)"/>
    <path id="Path_462" data-name="Path 462" d="M14.667,14.333a3.667,3.667,0,1,1,3.667-3.667A3.667,3.667,0,0,1,14.667,14.333Zm0-5.867a2.2,2.2,0,1,0,2.2,2.2A2.2,2.2,0,0,0,14.667,8.467Z" transform="translate(-1.6 -1.6)"/>
  </g>
</svg>
