<svg xmlns="http://www.w3.org/2000/svg" xmlns:xlink="http://www.w3.org/1999/xlink" id="Capa_1" width="512" height="512" enable-background="new 0 0 512 512" viewBox="0 0 512 512"><linearGradient id="SVGID_1_" x1="256" x2="256" y1="467" y2="0" gradientUnits="userSpaceOnUse"><stop offset="0" stop-color="#5558ff"/><stop offset="1" stop-color="#00c0ff"/></linearGradient><linearGradient id="SVGID_2_" x1="256" x2="256" y1="512" y2="62" gradientUnits="userSpaceOnUse"><stop offset="0" stop-color="#addcff"/><stop offset=".503" stop-color="#eaf6ff"/><stop offset="1" stop-color="#eaf6ff"/></linearGradient><g><g><g><path fill="url(#SVGID_1_)" d="m451 0h-330c-41.367 0-75 33.647-75 75v377c0 8.291 6.709 15 15 15s15-6.709 15-15c0-16.538 13.447-30 30-30l360-15v-392c0-8.291-6.709-15-15-15z"/></g></g><g><g><path fill="url(#SVGID_2_)" d="m256 362c82.8 0 150-67.2 150-150s-67.2-150-150-150-150 67.2-150 150 67.2 150 150 150zm0-60c-8.401 0-15-6.601-15-15 0-8.401 6.599-15 15-15s15 6.599 15 15c0 8.399-6.599 15-15 15zm0-180c24.9 0 45 20.1 45 45 0 15.899-8.699 30.899-22.5 39-4.501 2.701-7.5 7.5-7.5 12.9v8.1c0 8.399-6.599 15-15 15s-15-6.601-15-15v-8.101c0-15.899 8.699-30.899 22.5-39 4.501-2.701 7.5-7.5 7.5-12.9 0-8.401-6.599-15-15-15s-15 6.599-15 15c0 8.399-6.599 15-15 15s-15-6.601-15-15c0-24.899 20.1-44.999 45-44.999zm195 360c-16.553 0-30-13.462-30-30s13.447-30 30-30c8.291 0 15-6.709 15-15s-6.709-15-15-15h-345c-33.076 0-60 26.909-60 60s26.924 60 60 60h345c8.291 0 15-6.709 15-15s-6.709-15-15-15z"/></g></g></g></svg>