<svg xmlns="http://www.w3.org/2000/svg" width="22.001" height="22.001" viewBox="0 0 22.001 22.001"><g id="Person" transform="translate(-2 -2)"><g id="Layer_2" data-name="Layer 2" transform="translate(2 2)"><circle id="Ellipse_12" cx="3.143" cy="3.143" r="3.143" fill="none" data-name="Ellipse 12" transform="translate(7.967 1.54)"/><path id="Path_464" fill="none" d="M13.509,17A9.429,9.429,0,0,0,4.08,25.58l18.8.063A9.429,9.429,0,0,0,13.509,17Z" data-name="Path 464" transform="translate(-2.446 -5.214)"/><path id="Path_465" d="M13.071,15A11,11,0,0,0,2,25.9a.786.786,0,0,0,.786.786l20.429.1A.786.786,0,0,0,24,26a11,11,0,0,0-10.93-11ZM3.642,25.152a9.429,9.429,0,0,1,18.787.063Z" data-name="Path 465" transform="translate(-2 -4.785)"/><path id="Path_466" d="M14.814,11.429A4.714,4.714,0,1,0,10.1,6.714a4.714,4.714,0,0,0,4.714,4.714Zm.047-7.857a3.143,3.143,0,1,1-3.143,3.143A3.143,3.143,0,0,1,14.862,3.571Z" data-name="Path 466" transform="translate(-3.735 -2)"/></g></g></svg>