<svg id="Layer_1" data-name="Layer 1" xmlns="http://www.w3.org/2000/svg" viewBox="0 0 223 52.3"><defs><style>.cls-1{fill:#231f20;}.cls-2{fill:#fdf731;}</style></defs><title>Saasitute by Recurr-01</title><path id="saastitute" class="cls-1" d="M0,24.66H0l7.05.07a2.77,2.77,0,0,0,1.11,2,3.94,3.94,0,0,0,2.46.78,3.48,3.48,0,0,0,2.06-.5,1.64,1.64,0,0,0,.76-1.36,1.59,1.59,0,0,0-1-1.51A20.14,20.14,0,0,0,9,23a31.59,31.59,0,0,1-4.15-1.28A7.32,7.32,0,0,1,2,19.65,5.72,5.72,0,0,1,.86,15.82,6.49,6.49,0,0,1,2,12.15a7.41,7.41,0,0,1,3.28-2.6,12.15,12.15,0,0,1,5.12-.92,10.17,10.17,0,0,1,6.88,2.26,8.55,8.55,0,0,1,2.84,5.84l-6.58-.06a2.93,2.93,0,0,0-1-2A3.68,3.68,0,0,0,10.14,14a3.33,3.33,0,0,0-1.92.47,1.57,1.57,0,0,0-.68,1.32,1.63,1.63,0,0,0,1,1.51,16.74,16.74,0,0,0,3.31,1,36.13,36.13,0,0,1,4.2,1.37,7.3,7.3,0,0,1,2.84,2.14,6.08,6.08,0,0,1,1.24,3.92A6.23,6.23,0,0,1,19,29.4a7.69,7.69,0,0,1-3.31,2.52,12.65,12.65,0,0,1-5,.88,13.4,13.4,0,0,1-5.41-1.11,9.38,9.38,0,0,1-3.73-2.92A7.7,7.7,0,0,1,0,24.64Zm23.76-3.85a14.11,14.11,0,0,1,1.42-6.35,10.24,10.24,0,0,1,3.73-4.18,9.68,9.68,0,0,1,5.21-1.46,9,9,0,0,1,4.31,1.06,7.43,7.43,0,0,1,2.83,2.68l0-3.33,7.13.07L48.2,32.8l-7.14-.06,0-3.33a8,8,0,0,1-2.93,2.64,9,9,0,0,1-4.32,1,9.52,9.52,0,0,1-5.16-1.55A10.43,10.43,0,0,1,25,27.17a14.21,14.21,0,0,1-1.29-6.39ZM41.19,21a5.94,5.94,0,0,0-1.46-4.28,5,5,0,0,0-7-.26l-.18.17A5.9,5.9,0,0,0,31,20.87a6.05,6.05,0,0,0,1.44,4.29,4.92,4.92,0,0,0,7,.33h0l.24-.24A5.94,5.94,0,0,0,41.17,21Zm11.48.07a14.38,14.38,0,0,1,1.42-6.35,10.31,10.31,0,0,1,3.73-4.18,9.65,9.65,0,0,1,5.23-1.42,8.87,8.87,0,0,1,4.31,1,7.51,7.51,0,0,1,2.83,2.68l0-3.32,7.13.06-.22,23.51L70,33.05l0-3.33a7.72,7.72,0,0,1-2.92,2.64,8.92,8.92,0,0,1-4.33,1,9.42,9.42,0,0,1-5.15-1.54A10.43,10.43,0,0,1,54,27.49a14.42,14.42,0,0,1-1.3-6.41Zm17.44.21A6,6,0,0,0,68.67,17a5,5,0,0,0-7-.27h0l-.18.18a5.9,5.9,0,0,0-1.51,4.22,6.08,6.08,0,0,0,1.41,4.26,5,5,0,0,0,7,.32l.24-.23a6,6,0,0,0,1.51-4.24Zm11.61,4.15h0l7,.07a2.76,2.76,0,0,0,1.11,2,4,4,0,0,0,2.45.78,3.48,3.48,0,0,0,2.06-.51,1.61,1.61,0,0,0,.76-1.36,1.58,1.58,0,0,0-1-1.51,21.79,21.79,0,0,0-3.37-1.11,31.45,31.45,0,0,1-4.14-1.28,7.25,7.25,0,0,1-2.86-2.09,5.67,5.67,0,0,1-1.17-3.83,6.49,6.49,0,0,1,1.13-3.67A7.54,7.54,0,0,1,87,10.33a12.3,12.3,0,0,1,5.12-.92A10.15,10.15,0,0,1,99,11.67a8.58,8.58,0,0,1,2.81,5.83l-6.59-.06a2.93,2.93,0,0,0-1-2,3.68,3.68,0,0,0-2.35-.76,3.33,3.33,0,0,0-1.92.47,1.53,1.53,0,0,0-.68,1.32,1.62,1.62,0,0,0,1,1.53,16.64,16.64,0,0,0,3.3,1,36.13,36.13,0,0,1,4.2,1.37,7.3,7.3,0,0,1,2.84,2.13,6,6,0,0,1,1.23,3.91,6.23,6.23,0,0,1-1.18,3.68,7.6,7.6,0,0,1-3.31,2.51,12.57,12.57,0,0,1-5,.88,13.31,13.31,0,0,1-5.43-1.09,9.33,9.33,0,0,1-3.72-2.92,7.62,7.62,0,0,1-1.51-4.12Zm23.5-9.6.06-6,2.84,0,0-5.73,7.13.07L115.23,10l4.67,0-.06,6-4.67-.05-.09,9.43a2,2,0,0,0,.49,1.51,2.41,2.41,0,0,0,1.66.48l2.55,0-.06,6.1-3.63,0a8.83,8.83,0,0,1-6-2c-1.42-1.28-2.13-3.39-2.1-6.27l.09-9.36-2.84,0ZM123.91,3.73A3.72,3.72,0,0,1,125.13.94,4.33,4.33,0,0,1,128.2-.15a4.27,4.27,0,0,1,3,1.14,3.67,3.67,0,0,1,1.16,2.81,3.63,3.63,0,0,1-1.23,2.76,4.72,4.72,0,0,1-6.08,0,3.62,3.62,0,0,1-1.16-2.77Zm.38,29.84.22-23.51,7.13.07-.22,23.51-7.14-.07Zm11.35-17.42.06-6,2.84,0,.06-5.72,7.13.07-.06,5.73,4.67,0-.08,6-4.67-.05-.09,9.43a2,2,0,0,0,.49,1.51,2.41,2.41,0,0,0,1.66.48l2.55,0-.06,6.12-3.63,0a8.88,8.88,0,0,1-6-2c-1.42-1.28-2.13-3.39-2.1-6.27l.09-9.36-2.84,0Zm19,7.94.13-13.73,7.09.06-.12,12.77a5.24,5.24,0,0,0,1.17,3.67,4.2,4.2,0,0,0,3.24,1.34,4.27,4.27,0,0,0,3.31-1.27,5.22,5.22,0,0,0,1.24-3.65l.13-12.77,7.13.07-.25,23.51L170.54,34l0-3.2a7.82,7.82,0,0,1-3,2.48,8.89,8.89,0,0,1-4.12.91,9.22,9.22,0,0,1-4.7-1.25,8.06,8.06,0,0,1-3.14-3.5,11.93,11.93,0,0,1-1.06-5.36Zm27.28-7.49.06-6,2.84,0,.05-5.73L192,5l-.05,5.73,4.67,0-.07,6-4.68,0-.09,9.43a2,2,0,0,0,.49,1.5,2.49,2.49,0,0,0,1.66.49l2.55,0-.06,6.11-3.63,0a8.87,8.87,0,0,1-6-2c-1.42-1.29-2.13-3.39-2.1-6.28l.09-9.35Zm17.77,5.95a13.31,13.31,0,0,1,1.52-6.4A10.32,10.32,0,0,1,205.36,12a12.53,12.53,0,0,1,6.15-1.42,12.4,12.4,0,0,1,6,1.49,10.33,10.33,0,0,1,4.08,4.13A12.68,12.68,0,0,1,223,22.4a21,21,0,0,1-.14,2.1l-16.14-.15a5,5,0,0,0,1.36,3.36,4.25,4.25,0,0,0,3,1.18,3.76,3.76,0,0,0,3.73-2.23l7.59.07a10.54,10.54,0,0,1-6,7,12.09,12.09,0,0,1-5.14,1,12.39,12.39,0,0,1-6.07-1.53A10.48,10.48,0,0,1,201.06,29a13.14,13.14,0,0,1-1.44-6.42Zm16.08-2.12a3.8,3.8,0,0,0-1.23-3,4.61,4.61,0,0,0-3.11-1.13,4.54,4.54,0,0,0-3,1,4.69,4.69,0,0,0-1.56,3Z" transform="translate(0 0.15)"/><rect class="cls-2" x="153.91" y="46.16" width="69.09" height="6.15"/><g id="logo-full"><g id="Group"><path id="recurr" class="cls-1" d="M160.79,50.45v-.53c-1.2-.21-1.4-.44-1.39-1.3l.06-5.7a4.4,4.4,0,0,1,2.68-.71,5.26,5.26,0,0,1,1.58.24,2.86,2.86,0,0,0,.26-1.19c0-1-.45-1.76-1.44-1.77s-2,.9-3.11,3.06l0-3.07-4.86.54v.5l.55.18c.61.21.7.37.7,1.07l-.07,6.92c0,.76-.18,1-1.27,1.16v.52Zm10.13.31a5.3,5.3,0,0,0,4.53-1.88v-.53a3.61,3.61,0,0,1-2.55.93c-2.22,0-3.84-1.64-4.1-4.47l6.84.07a6.34,6.34,0,0,0,.07-.75c0-2.7-1.79-4.58-4.83-4.61a5.38,5.38,0,0,0-5.75,5.58C165.09,48.57,167.65,50.73,170.92,50.76Zm-2.17-6.57v-.31c0-2.34.8-3.65,2.13-3.63,1.16,0,1.68,1.25,1.66,3.19,0,.31,0,.54,0,.75ZM183,50.88A5.39,5.39,0,0,0,187.41,49V48.5a3.85,3.85,0,0,1-2.6.87c-2.18,0-3.93-1.75-3.9-4.74,0-2.49,1.35-4.07,3.34-4.05a2.88,2.88,0,0,1,1.54.42h-.06a1.54,1.54,0,0,0-1.55,1.55,1.58,1.58,0,0,0,1.57,1.6h0a1.62,1.62,0,0,0,1.63-1.58v0c0-1.56-1.48-2.83-4.13-2.85-3.49,0-6.09,2.25-6.12,5.58A5.51,5.51,0,0,0,183,50.88Zm10.15.1a3.88,3.88,0,0,0,3.78-2.06l0,2,4.85-.49v-.5l-.56-.16c-.61-.23-.68-.38-.68-1.09l.09-8.81-4.9.54v.5l.57.18c.62.21.7.36.7,1.07l-.07,6.34a2,2,0,0,1-1.84,1c-1.23,0-1.91-.75-1.89-2.22l.07-7.47-4.88.54v.5l.57.18c.6.21.69.36.68,1.07l0,5.34c0,2.38,1.43,3.52,3.59,3.54Zm15.82-.07v-.53c-1.21-.21-1.4-.44-1.39-1.29l.05-5.71a4.43,4.43,0,0,1,2.69-.7,5,5,0,0,1,1.58.23,2.85,2.85,0,0,0,.26-1.18c0-1-.46-1.77-1.45-1.78s-2,.91-3.11,3.06l0-3.07-4.86.54V41l.56.18c.6.21.7.37.69,1.07l-.07,6.93c0,.76-.18,1-1.27,1.16v.53Zm10.28.1v-.53c-1.2-.21-1.4-.44-1.39-1.3l.05-5.7a4.43,4.43,0,0,1,2.69-.7,5,5,0,0,1,1.58.23,2.82,2.82,0,0,0,.26-1.18c0-1-.45-1.77-1.44-1.78s-2,.9-3.11,3.06l0-3.07-4.86.54v.5l.56.18c.6.21.7.37.69,1.08l-.07,6.91c0,.77-.18,1-1.27,1.17v.52Z" transform="translate(0 0.15)"/></g></g><path d="M144.6,42.48a2.7,2.7,0,0,1,0,5.38,2.21,2.21,0,0,1-2.08-1.25v1.15h-.66l.07-7.07h.66l0,3A2.23,2.23,0,0,1,144.6,42.48Zm-.14.59a1.94,1.94,0,0,0-2,2.07,1.95,1.95,0,1,0,3.88,0A1.9,1.9,0,0,0,144.46,43.07Z" transform="translate(0 0.15)"/><path d="M151.93,42.63h.69l-3.16,7.66h-.7l1-2.48-2.1-5.21h.74l1.73,4.47Z" transform="translate(0 0.15)"/></svg>