<svg xmlns="http://www.w3.org/2000/svg" width="222.863" height="34.076" viewBox="0 0 222.863 34.076"><path id="saastitute" fill="#333" d="M54.027,337.861h0v-7.049a2.757,2.757,0,0,0,1.978-1.127,3.971,3.971,0,0,0,.758-2.46,3.5,3.5,0,0,0-.526-2.063,1.622,1.622,0,0,0-1.369-.73,1.584,1.584,0,0,0-1.494,1.042,20.992,20.992,0,0,0-1.074,3.378,31.518,31.518,0,0,1-1.243,4.168,7.227,7.227,0,0,1-2.063,2.877,5.685,5.685,0,0,1-3.811,1.21A6.546,6.546,0,0,1,41.5,336a7.486,7.486,0,0,1-2.632-3.252,12.391,12.391,0,0,1-.969-5.11,10.214,10.214,0,0,1,2.19-6.9,8.585,8.585,0,0,1,5.812-2.9v6.587a2.887,2.887,0,0,0-1.937,1.057,3.678,3.678,0,0,0-.717,2.35,3.248,3.248,0,0,0,.484,1.917,1.558,1.558,0,0,0,1.328.667,1.626,1.626,0,0,0,1.515-1.057,16.989,16.989,0,0,0,1.01-3.315,36.217,36.217,0,0,1,1.328-4.21,7.3,7.3,0,0,1,2.105-2.856,6.027,6.027,0,0,1,3.9-1.272,6.25,6.25,0,0,1,3.684,1.147,7.636,7.636,0,0,1,2.548,3.289,12.536,12.536,0,0,1,.927,5,13.309,13.309,0,0,1-1.057,5.419,9.3,9.3,0,0,1-2.884,3.752,7.669,7.669,0,0,1-4.1,1.542Zm-4.085-23.692a14.223,14.223,0,0,1-6.359-1.355,10.221,10.221,0,0,1-4.212-3.689,9.61,9.61,0,0,1-1.473-5.211,8.919,8.919,0,0,1,1.01-4.315,7.432,7.432,0,0,1,2.654-2.856H38.234v-7.131h23.5v7.131H58.406a7.764,7.764,0,0,1,2.654,2.9,8.92,8.92,0,0,1,1.01,4.313,9.43,9.43,0,0,1-1.5,5.169,10.338,10.338,0,0,1-4.254,3.689,14.36,14.36,0,0,1-6.379,1.356Zm.042-17.427a5.948,5.948,0,0,0-4.254,1.48,4.974,4.974,0,0,0-.021,7.212,5.874,5.874,0,0,0,4.229,1.48,6.026,6.026,0,0,0,4.275-1.48,4.934,4.934,0,0,0,.021-7.212,5.951,5.951,0,0,0-4.252-1.479Zm-.042-11.477a14.235,14.235,0,0,1-6.359-1.355,10.227,10.227,0,0,1-4.212-3.69,9.605,9.605,0,0,1-1.473-5.211,8.92,8.92,0,0,1,1.01-4.315,7.433,7.433,0,0,1,2.654-2.856H38.234v-7.13h23.5v7.135H58.406a7.754,7.754,0,0,1,2.654,2.9,8.928,8.928,0,0,1,1.01,4.309,9.427,9.427,0,0,1-1.5,5.169,10.35,10.35,0,0,1-4.254,3.69,14.37,14.37,0,0,1-6.379,1.356Zm.042-17.427a5.948,5.948,0,0,0-4.254,1.48,4.975,4.975,0,0,0-.021,7.212,5.874,5.874,0,0,0,4.229,1.48,6.026,6.026,0,0,0,4.275-1.48,4.934,4.934,0,0,0,.021-7.212,5.95,5.95,0,0,0-4.252-1.476Zm4.042-11.643h0v-7.049a2.753,2.753,0,0,0,1.978-1.125,3.973,3.973,0,0,0,.758-2.46,3.5,3.5,0,0,0-.526-2.063,1.622,1.622,0,0,0-1.369-.73,1.584,1.584,0,0,0-1.494,1.042,20.979,20.979,0,0,0-1.074,3.376,31.57,31.57,0,0,1-1.243,4.169,7.239,7.239,0,0,1-2.063,2.877,5.688,5.688,0,0,1-3.811,1.209,6.551,6.551,0,0,1-3.685-1.1,7.492,7.492,0,0,1-2.632-3.252,12.393,12.393,0,0,1-.968-5.107,10.221,10.221,0,0,1,2.19-6.9,8.593,8.593,0,0,1,5.812-2.9v6.588a2.884,2.884,0,0,0-1.937,1.057,3.681,3.681,0,0,0-.717,2.355,3.252,3.252,0,0,0,.484,1.917,1.559,1.559,0,0,0,1.328.667,1.626,1.626,0,0,0,1.515-1.057,16.993,16.993,0,0,0,1.01-3.314,36.158,36.158,0,0,1,1.328-4.21,7.3,7.3,0,0,1,2.105-2.856,6.022,6.022,0,0,1,3.9-1.271A6.25,6.25,0,0,1,58.6,237.2a7.629,7.629,0,0,1,2.548,3.289,12.538,12.538,0,0,1,.926,4.986,13.315,13.315,0,0,1-1.057,5.421,9.3,9.3,0,0,1-2.884,3.751,7.665,7.665,0,0,1-4.1,1.543Zm-9.814-23.4h-5.98v-2.835H32.507V222.83h5.727v-4.67h5.979v4.67h9.434a2,2,0,0,0,1.516-.5,2.438,2.438,0,0,0,.463-1.668v-2.542h6.109v3.627a8.858,8.858,0,0,1-1.916,6.046c-1.271,1.438-3.375,2.168-6.253,2.168H44.213v2.834Zm-12.3-18.562a3.7,3.7,0,0,1-2.8-1.189A4.31,4.31,0,0,1,28,209.979a4.256,4.256,0,0,1,1.116-3.023,3.7,3.7,0,0,1,2.8-1.188,3.642,3.642,0,0,1,2.758,1.188,4.259,4.259,0,0,1,1.116,3.023,4.313,4.313,0,0,1-1.116,3.064,3.642,3.642,0,0,1-2.757,1.187Zm29.815-.667h-23.5v-7.129h23.5v7.131ZM44.213,202.378h-5.98v-2.835H32.507v-7.13h5.727v-4.669h5.979v4.669h9.434a2,2,0,0,0,1.515-.5,2.433,2.433,0,0,0,.463-1.667V187.7h6.109v3.627a8.859,8.859,0,0,1-1.916,6.046c-1.272,1.439-3.376,2.169-6.253,2.169H44.213v2.834Zm7.754-19.022H38.234v-7.086h12.76a5.212,5.212,0,0,0,3.664-1.21,4.229,4.229,0,0,0,1.306-3.252,4.286,4.286,0,0,0-1.306-3.289,5.211,5.211,0,0,0-3.664-1.21H38.234v-7.129h23.5v7.129h-3.2a7.883,7.883,0,0,1,2.506,2.937,8.937,8.937,0,0,1,.947,4.112,9.164,9.164,0,0,1-1.2,4.711,8.1,8.1,0,0,1-3.474,3.172,11.983,11.983,0,0,1-5.345,1.115Zm-7.754-27.194h-5.98v-2.835H32.507V146.2h5.727v-4.669h5.979V146.2h9.434a2,2,0,0,0,1.515-.5,2.433,2.433,0,0,0,.463-1.667v-2.543h6.109v3.628a8.857,8.857,0,0,1-1.916,6.044c-1.272,1.437-3.376,2.169-6.255,2.169h-9.35v2.834Zm5.771-17.814a13.315,13.315,0,0,1-6.4-1.48,10.338,10.338,0,0,1-4.212-4.148A12.529,12.529,0,0,1,37.9,126.59a12.4,12.4,0,0,1,1.432-6,10.276,10.276,0,0,1,4.085-4.112A12.56,12.56,0,0,1,49.605,115a18.511,18.511,0,0,1,2.105.126V131.26a4.941,4.941,0,0,0,3.348-1.4,4.26,4.26,0,0,0,1.158-3.023,3.759,3.759,0,0,0-2.273-3.71v-7.588a10.558,10.558,0,0,1,7.069,5.92,12.2,12.2,0,0,1,1.057,5.128,12.429,12.429,0,0,1-1.474,6.087,10.478,10.478,0,0,1-4.212,4.168,13.158,13.158,0,0,1-6.4,1.5ZM47.709,122.3a3.732,3.732,0,0,0-2.948,1.251,4.592,4.592,0,0,0-1.095,3.126,4.5,4.5,0,0,0,1.057,3.023,4.712,4.712,0,0,0,2.99,1.527Z" transform="translate(337.861 -27.996) rotate(90)"/></svg>