<svg id="Layer_1" data-name="Layer 1" xmlns="http://www.w3.org/2000/svg" viewBox="0 0 1080 1080"><defs><style>.cls-1,.cls-2{fill:#d2eac3;}.cls-1{opacity:0.49;}.cls-2{opacity:0.6;}</style></defs><title>ICONS</title><path class="cls-1" d="M756.88,333.74C821,322.13,937.68,457,952,598.51,969.55,772.25,835,979.1,658.79,978.85c-91.65-.13-185.52-56.28-234.79-126.32-42.78-60.84-19.71-86.36-65.37-185.95C297.9,534.11,224.85,509,238.41,457c14.72-56.47,118.14-93.68,203.63-78.78,105.76,18.43,139.78,108.89,201.51,95.1C710.84,458.24,701.6,343.76,756.88,333.74Z"/><path class="cls-2" d="M408.15,327c26.68-56.36,202.39-89.64,325.7-38.13,151.41,63.24,244,262.77,144.43,403.46C826.49,765.48,727.81,815.51,643,823.72c-73.69,7.14-81.46-22.65-188.33-30.47-142.15-10.39-203.81,36.8-238.54,2.82-37.7-36.87-9.68-136.07,50.66-197.75C341.43,522,434.31,535.06,457.89,479.6,483.59,419.15,385.14,375.61,408.15,327Z"/><g id="iB2H3s.tif"><path d="M796.21,646q-48.32,48.53-96.63,97.06c-5.41,5.42-11,10.69-16.41,16.08a10.64,10.64,0,0,1-8.06,3.26c-9.83-.11-19.66,0-29.49-.1-5.65,0-9.1-3.08-9.19-7.73-.09-4.87,3.42-7.9,9.4-8,7.5-.07,15-.11,22.5,0a9.58,9.58,0,0,0,7.55-3q48-48.15,96.16-96.13c3.25-3.23,2.52-4.58-1.27-6.2-14.18-6.06-27.23-6.17-40.28,3.92q-34.4,26.63-67.48,54.84c-5.12,4.39-10.26,6.47-17.08,6.39-26.33-.34-52.66-.21-79-.13-4.1,0-7.44-.94-10.18-4.17q-22.49-26.48-45.11-52.83c-2.47-2.88-4.55-5.82-2.8-9.9,1.84-4.31,5.52-5.27,9.72-5.73q39.2-4.28,78.38-8.72c6.61-.74,13.23-1.46,19.84-2.22a40.15,40.15,0,0,0,34.59-30.91c1-4.24,0-5.72-4.46-5.69-22.5.15-45,.09-67.49.1-2.16,0-4.33.05-6.49-.09-5.1-.34-8.55-3.54-8.69-7.93s3.27-8,8.34-8.27c6.82-.34,13.66-.2,20.49-.21q31.74,0,63.49.05c9.28,0,11.85,2.64,11.92,11.88.23,30.8-22.29,54.92-52.91,57.72-26.51,2.43-52.92,5.85-79.39,8.72-3.26.35-3.12,1.14-1.44,3.53,4.1,5.82,9,8.43,16.62,8.28,27.65-.57,55.32-.28,83-.17a14.8,14.8,0,0,0,9.63-3.23c13.89-10.63,28.17-20.73,42.58-30.67,12.92-8.91,26.49-10.14,40.73-4a15.59,15.59,0,0,0,11.51.69c14.24-4.43,27.71-1,40.65,5.05,6.13,2.87,12.54,5.59,16.75,11.4Zm-79.66-10.53c-8.28-2.44-14.66-.36-20.7,3.67-14.55,9.73-28.7,20-42.59,30.65a29.21,29.21,0,0,1-18.9,6.39c-23.83-.22-47.66-.08-71.48-.08-1.33,0-2.67,0-4,.1s-1.65.74-1.18,2c1.89,5.2,10.94,11.67,16.48,11.68,21.49,0,43-.22,64.48.22,7.62.16,13.48-1.74,19.3-6.9C676.53,666.78,696,651.36,716.55,635.47Z"/><path d="M484,478.19c0-11-.13-22,.08-33,.06-3.62-1.22-5.41-4.63-6.51-7.61-2.44-15.14-5.15-22.64-7.92-3.17-1.17-4.54-.75-4.51,3,.12,17.66.07,35.32.05,53a22.93,22.93,0,0,0,1.58,7.29c4.33,12.95,8.73,25.88,13,38.86,2.8,8.58-.54,13.16-9.63,13.26s-18,.11-27,0c-8.45-.11-11.8-4.78-9.18-12.79q6.43-19.71,13.13-39.33A33.51,33.51,0,0,0,436,482.79c-.07-20.66,0-41.32,0-62,0-7.39,1.45-9.44,8.46-11.51q65.88-19.46,131.77-38.85a14.24,14.24,0,0,1,8.33,0q65.88,19.42,131.78,38.78c4.22,1.25,8,3,8.14,8.15.19,5.37-3.58,7.39-7.92,8.91-11.17,3.9-22.23,8.11-33.48,11.71-4.88,1.56-6.75,3.79-6.66,9.16.35,21,0,42,.25,63,.09,6.4-2.39,10.07-8,12.94C639.87,537.93,609.52,546.65,577,546c-30.86-.59-59.68-9.47-86.86-23.9-4.46-2.36-6.4-5.86-6.32-10.94.18-11,.06-22,.06-33Zm176.12.34h.07q0-12.5,0-25c0-7.26,0-7.29-7.08-4.79-21.83,7.7-43.69,15.31-65.45,23.22a20.47,20.47,0,0,1-14.93-.13c-22.54-8.2-45.21-16-67.8-24.07-3-1.08-4.6-1.17-4.57,2.8.11,18.33.07,36.66,0,55,0,2.4.65,4.11,3,5.22,21.82,10.51,44.67,17.49,68.93,18.86,29.47,1.67,57.08-5.78,83.59-18.14,3.17-1.48,4.39-3.49,4.32-7C660,495.86,660.08,487.19,660.08,478.53ZM494.37,426.12l0,.83c26.68,9.41,53.38,18.75,80,28.3a16.14,16.14,0,0,0,11.57.16c28.06-10,56.18-19.89,84.27-29.83,6.15-2.17,12.27-4.42,19-6.84a13.66,13.66,0,0,0-2.06-1.17q-52-15.31-103.93-30.64a11.48,11.48,0,0,0-6.82.31c-10.68,3.18-21.4,6.28-32.09,9.43q-21,6.18-42,12.39a16,16,0,0,0,5.46.65q35.48,0,70.95,0c5.67,0,9.2,3,9.49,7.53s-3.48,8.38-9,8.72c-4.15.26-8.33.16-12.49.17Z"/><path d="M574.11,762.33c-2,0-4-.17-6,0-23.94,2.46-46.47-4.18-69.1-10.46-24.54-6.81-49.21-13.15-73.79-19.83a13,13,0,0,0-9.15.77q-57.85,25.42-115.76,50.73a51.91,51.91,0,0,1-5.55,2.24c-4.72,1.42-8.84-.38-10.37-4.38s0-8.34,4.41-10.39c9.67-4.47,19.45-8.71,29.22-13,31.12-13.61,62.31-27.08,93.35-40.86a23,23,0,0,1,16.37-1.3c36.62,10,73.29,19.7,110,29.5a21.46,21.46,0,0,0,5.36,1.09c17.65,0,35.31,0,53-.24,4.16,0,8.32-.48,12.46.1,5.33.75,8.21,3.89,8,8.46s-3.57,7.45-8.87,7.49C596.43,762.38,585.27,762.32,574.11,762.33Z"/><path d="M479.37,586.24c-17.66,0-35.33,0-53,0a21.76,21.76,0,0,0-9.18,1.88q-59,25.9-118.13,51.67c-.91.4-1.81.84-2.74,1.2-5.41,2.11-10,.67-11.86-3.68s.24-8.81,5.55-11.15c12-5.31,24.12-10.52,36.17-15.81q43.95-19.25,87.87-38.56a23.18,23.18,0,0,1,9.67-2q54.75.09,109.49.1a20.53,20.53,0,0,1,5,.39c4,1,6.47,3.45,6.49,7.74,0,4.54-2.65,7-6.83,8a26.21,26.21,0,0,1-5.47.28Z"/><path d="M676.43,377.54a8.19,8.19,0,0,1,3.87-6.66c4.57-2.74,9.12-5.54,13.85-8,4.36-2.26,8.6-1,10.94,2.69s1.57,8.15-2.59,10.89a116.25,116.25,0,0,1-14.32,8.14C682.35,387.37,676.32,383.51,676.43,377.54Z"/><path d="M588.38,309.77a75.82,75.82,0,0,1,0,8c-.5,4.83-3.77,7.69-8.27,7.61a7.58,7.58,0,0,1-7.81-7.51,127.49,127.49,0,0,1,0-16.47,7.79,7.79,0,0,1,8.23-7.67c4.16.06,7.32,2.94,7.81,7.57a82.86,82.86,0,0,1,.05,8.49Z"/><path d="M528.37,332.91c-.61,4.32-2.18,7-5.5,8.14s-6.48.6-8.61-2.24A82.45,82.45,0,0,1,504.6,322c-1.34-3.12-.12-6,2.31-8.09,2.61-2.29,6-3.24,8.75-1C522.34,318.21,525.06,326.2,528.37,332.91Z"/><path d="M656.55,320.8c-3.29,6.44-5.87,14.15-12.06,19.53-2.56,2.23-6.07,1.76-8.84-.37s-4.15-5.45-2.66-8.88a88.06,88.06,0,0,1,9.44-16.42c2-2.8,5.18-3.57,8.53-2.35C654.48,313.59,656.11,316.31,656.55,320.8Z"/><path d="M475.5,385.56a13.3,13.3,0,0,1-3.3-1c-4.8-2.67-9.65-5.29-14.23-8.31a7.58,7.58,0,0,1-2.65-10.51,7.71,7.71,0,0,1,10.39-3.1,154.4,154.4,0,0,1,15.12,8.73,6.92,6.92,0,0,1,2.82,8.78C482.35,383.65,479.77,385.42,475.5,385.56Z"/></g></svg>