<svg xmlns="http://www.w3.org/2000/svg" width="32.707" height="32.707" viewBox="0 0 32.707 32.707">
  <path id="twitter" d="M16.353,0A16.353,16.353,0,1,0,32.707,16.353,16.355,16.355,0,0,0,16.353,0ZM23.82,12.751q.011.241.011.485a10.607,10.607,0,0,1-10.68,10.68h0A10.625,10.625,0,0,1,7.4,22.229a7.635,7.635,0,0,0,.9.052,7.532,7.532,0,0,0,4.662-1.607,3.758,3.758,0,0,1-3.507-2.607,3.741,3.741,0,0,0,1.7-.064,3.755,3.755,0,0,1-3.011-3.679c0-.017,0-.032,0-.048a3.728,3.728,0,0,0,1.7.469A3.757,3.757,0,0,1,8.671,9.734a10.657,10.657,0,0,0,7.737,3.922,3.756,3.756,0,0,1,6.4-3.423,7.529,7.529,0,0,0,2.384-.911A3.768,3.768,0,0,1,23.537,11.4a7.486,7.486,0,0,0,2.155-.591A7.628,7.628,0,0,1,23.82,12.751Zm0,0" fill="#884eff"/>
</svg>
