<svg xmlns="http://www.w3.org/2000/svg" width="21" height="21" fill="none" viewBox="0 0 21 21"><path fill="#74E" d="M9.9446 20.9855C7.90493 20.8797 5.88463 20.1523 4.25063 18.9354C3.81147 18.6084 3.49329 18.3321 3.08057 17.9194C2.21585 17.0547 1.5698 16.1478 1.04862 15.0669C-0.349539 12.1678 -0.349539 8.83218 1.04862 5.93306C1.56985 4.85227 2.21591 3.94543 3.08057 3.08057C3.9453 2.21585 4.85215 1.5698 5.93306 1.04862C8.83218 -0.349539 12.1678 -0.349539 15.0669 1.04862C16.1477 1.56985 17.0546 2.21591 17.9194 3.08057C18.7842 3.9453 19.4302 4.85215 19.9514 5.93306C21.3495 8.83218 21.3495 12.1678 19.9514 15.0669C19.4302 16.1477 18.7841 17.0546 17.9194 17.9194C17.2233 18.6156 16.5481 19.1336 15.7115 19.6137C13.9739 20.6106 11.9592 21.0899 9.94477 20.9854L9.9446 20.9855ZM11.4952 18.3208C12.0708 18.2426 12.5494 18.1297 13.0758 17.9478C15.7456 17.0257 17.7139 14.7481 18.2443 11.9674C18.3475 11.4267 18.3692 11.1708 18.3692 10.5001C18.3692 9.82938 18.3475 9.5735 18.2443 9.03281C17.6364 5.8464 15.1536 3.36362 11.9672 2.75569C11.4265 2.65254 11.1706 2.63076 10.4999 2.63076C9.82918 2.63076 9.5733 2.65254 9.03262 2.75569C5.8462 3.36361 3.36343 5.8464 2.7555 9.03281C2.65235 9.5735 2.63056 9.82938 2.63056 10.5001C2.63056 11.1708 2.65235 11.4267 2.7555 11.9674C3.40086 15.3502 6.17307 17.9349 9.57652 18.3274C10.0009 18.3763 10.0009 18.3763 10.6129 18.3693C11.046 18.3643 11.2632 18.3523 11.4953 18.3208L11.4952 18.3208ZM9.18659 12.4702V9.18674H11.8133V15.7536H9.18659V12.4702ZM10.2578 7.8425C9.72389 7.74575 9.30189 7.30699 9.21164 6.75481C9.18287 6.57875 9.18287 6.5412 9.21164 6.36515C9.30558 5.79033 9.73031 5.3656 10.3051 5.27166C10.4812 5.24289 10.5187 5.24289 10.6948 5.27166C11.2696 5.3656 11.6943 5.79033 11.7883 6.36515C11.817 6.5412 11.817 6.57875 11.7883 6.75481C11.6972 7.31193 11.2758 7.74643 10.7327 7.84324C10.5377 7.878 10.453 7.87786 10.2578 7.8425H10.2578Z"/></svg>