<svg width="38" height="24" viewBox="0 0 38 24" fill="none" xmlns="http://www.w3.org/2000/svg">
<path d="M5.67673 1.22168H0.423335C0.189533 1.22168 0 1.40023 0 1.62049V22.8186C0 23.0388 0.189533 23.2174 0.423335 23.2174H5.67673C5.91054 23.2174 6.10007 23.0388 6.10007 22.8186V1.62049C6.10007 1.40023 5.91054 1.22168 5.67673 1.22168Z" fill="#BFE3FF"/>
<path d="M13.1943 1.22168H7.94091C7.70711 1.22168 7.51758 1.40023 7.51758 1.62049V22.8186C7.51758 23.0388 7.70711 23.2174 7.94091 23.2174H13.1943C13.4281 23.2174 13.6176 23.0388 13.6176 22.8186V1.62049C13.6176 1.40023 13.4281 1.22168 13.1943 1.22168Z" fill="#BFE3FF"/>
<path d="M37.258 10.9218L19.3986 0.610538C19.1731 0.48044 18.9174 0.411924 18.6572 0.411865C18.3969 0.411807 18.1412 0.480208 17.9157 0.610205C17.6902 0.740201 17.5028 0.92722 17.3724 1.15249C17.2421 1.37777 17.1732 1.63337 17.1729 1.89365V22.5182C17.1732 22.7785 17.2421 23.0341 17.3724 23.2594C17.5028 23.4846 17.6902 23.6717 17.9157 23.8017C18.1412 23.9317 18.3969 24.0001 18.6572 24C18.9174 23.9999 19.1731 23.9314 19.3986 23.8013L37.258 13.492C37.4836 13.3618 37.6709 13.1744 37.8011 12.9488C37.9313 12.7233 37.9999 12.4674 37.9999 12.2069C37.9999 11.9465 37.9313 11.6906 37.8011 11.465C37.6709 11.2394 37.4836 11.0521 37.258 10.9218V10.9218Z" fill="url(#paint0_linear)"/>
<defs>
<linearGradient id="paint0_linear" x1="17.0512" y1="23.7944" x2="28.0618" y2="7.18061" gradientUnits="userSpaceOnUse">
<stop offset="0.333333" stop-color="#4D61FF"/>
<stop offset="1" stop-color="#01BDFF"/>
</linearGradient>
</defs>
</svg>
