<svg xmlns="http://www.w3.org/2000/svg" width="32.71" height="32.71" viewBox="0 0 32.71 32.71"><g id="Whatsapp" transform="translate(-338.1 -502.497)"><circle id="Ellipse_106" cx="16.355" cy="16.355" r="16.355" fill="#884eff" data-name="Ellipse 106" transform="translate(338.1 502.497)"/><g id="Group_7" data-name="Group 7" transform="translate(-1753.275 339.38)"><path id="Path_581" fill="#fff" d="M104.1,126.139l1.591-5.673A10.774,10.774,0,0,1,104.238,115a10.958,10.958,0,0,1,18.749-7.748A10.883,10.883,0,0,1,126.169,115a11.028,11.028,0,0,1-11,11h0a11.384,11.384,0,0,1-5.258-1.314Zm6.088-3.528.346.208a8.953,8.953,0,0,0,4.635,1.245h0a9.118,9.118,0,1,0-7.748-4.289l.208.346-.9,3.39Z" data-name="Path 581" transform="translate(1993 64.047)"/><path id="Path_582" fill="#fff" fill-rule="evenodd" d="M114.806,112.983c-.208-.553-.415-.484-.623-.484h-.553a1.061,1.061,0,0,0-.761.346,3.042,3.042,0,0,0-.969,2.283,5.3,5.3,0,0,0,1.107,2.837,11.918,11.918,0,0,0,4.7,4.151,7.323,7.323,0,0,0,1.591.553,3.821,3.821,0,0,0,1.73.138,2.954,2.954,0,0,0,1.868-1.314,2.426,2.426,0,0,0,.138-1.314c-.069-.138-.277-.208-.553-.346s-1.591-.83-1.868-.9-.415-.138-.623.138-.692.9-.9,1.107c-.138.208-.346.208-.623.069a6.89,6.89,0,0,1-2.214-1.384A7.911,7.911,0,0,1,114.736,117c-.138-.277,0-.415.138-.553s.277-.346.415-.484a1.115,1.115,0,0,0,.277-.484.585.585,0,0,0,0-.484C115.567,114.92,115.013,113.537,114.806,112.983Z" data-name="Path 582" transform="translate(1990.596 61.429)"/></g></g></svg>